<mxfile host="app.diagrams.net" agent="Mozilla/5.0 (Windows NT 10.0; Win64; x64; rv:141.0) Gecko/20100101 Firefox/141.0" version="28.0.7" pages="3">
  <diagram name="GPIO框图" id="-1CRMZ3ilZ53mN010_KL">
    <mxGraphModel dx="815" dy="434" grid="1" gridSize="10" guides="1" tooltips="1" connect="1" arrows="0" fold="1" page="1" pageScale="1" pageWidth="827" pageHeight="1169" math="0" shadow="0">
      <root>
        <mxCell id="0" />
        <mxCell id="1" parent="0" />
        <mxCell id="aomzPrE-w1fCoq5hA7JI-33" value="" style="rounded=0;whiteSpace=wrap;html=1;fillColor=#eeeeee;strokeColor=#36393d;" parent="1" vertex="1">
          <mxGeometry x="140" y="225" width="120" height="170" as="geometry" />
        </mxCell>
        <mxCell id="aomzPrE-w1fCoq5hA7JI-32" value="" style="rounded=0;whiteSpace=wrap;html=1;fillColor=#eeeeee;strokeColor=#36393d;" parent="1" vertex="1">
          <mxGeometry x="288" y="225" width="140" height="170" as="geometry" />
        </mxCell>
        <mxCell id="aomzPrE-w1fCoq5hA7JI-1" value="Control" style="rounded=0;whiteSpace=wrap;html=1;fillColor=#b0e3e6;strokeColor=#0e8088;" parent="1" vertex="1">
          <mxGeometry x="160" y="240" width="80" height="40" as="geometry" />
        </mxCell>
        <mxCell id="aomzPrE-w1fCoq5hA7JI-13" style="edgeStyle=orthogonalEdgeStyle;rounded=0;orthogonalLoop=1;jettySize=auto;html=1;entryX=0;entryY=0.5;entryDx=0;entryDy=0;" parent="1" source="aomzPrE-w1fCoq5hA7JI-4" target="aomzPrE-w1fCoq5hA7JI-5" edge="1">
          <mxGeometry relative="1" as="geometry" />
        </mxCell>
        <mxCell id="aomzPrE-w1fCoq5hA7JI-4" value="" style="shape=trapezoid;perimeter=trapezoidPerimeter;whiteSpace=wrap;html=1;fixedSize=1;size=10;rotation=90;fillColor=#b0e3e6;strokeColor=#0e8088;rounded=0;" parent="1" vertex="1">
          <mxGeometry x="178" y="337" width="70" height="25" as="geometry" />
        </mxCell>
        <mxCell id="aomzPrE-w1fCoq5hA7JI-14" style="edgeStyle=orthogonalEdgeStyle;rounded=0;orthogonalLoop=1;jettySize=auto;html=1;endArrow=none;endFill=0;" parent="1" source="aomzPrE-w1fCoq5hA7JI-5" target="aomzPrE-w1fCoq5hA7JI-7" edge="1">
          <mxGeometry relative="1" as="geometry">
            <Array as="points">
              <mxPoint x="360" y="350" />
            </Array>
          </mxGeometry>
        </mxCell>
        <mxCell id="aomzPrE-w1fCoq5hA7JI-5" value="" style="triangle;whiteSpace=wrap;html=1;fillColor=#b0e3e6;strokeColor=#0e8088;rounded=0;" parent="1" vertex="1">
          <mxGeometry x="300" y="339.5" width="20" height="20" as="geometry" />
        </mxCell>
        <mxCell id="aomzPrE-w1fCoq5hA7JI-6" value="" style="triangle;whiteSpace=wrap;html=1;rotation=-180;fillColor=#b0e3e6;strokeColor=#0e8088;rounded=0;" parent="1" vertex="1">
          <mxGeometry x="300" y="290" width="20" height="20" as="geometry" />
        </mxCell>
        <mxCell id="aomzPrE-w1fCoq5hA7JI-7" value="" style="shape=waypoint;sketch=0;fillStyle=solid;size=6;pointerEvents=1;points=[];fillColor=none;resizable=0;rotatable=0;perimeter=centerPerimeter;snapToPoint=1;rounded=0;" parent="1" vertex="1">
          <mxGeometry x="350" y="320" width="20" height="20" as="geometry" />
        </mxCell>
        <mxCell id="aomzPrE-w1fCoq5hA7JI-8" value="" style="endArrow=classic;html=1;rounded=0;" parent="1" edge="1">
          <mxGeometry width="50" height="50" relative="1" as="geometry">
            <mxPoint x="160" y="330" as="sourcePoint" />
            <mxPoint x="200" y="330" as="targetPoint" />
          </mxGeometry>
        </mxCell>
        <mxCell id="aomzPrE-w1fCoq5hA7JI-9" value="" style="endArrow=classic;html=1;rounded=0;" parent="1" edge="1">
          <mxGeometry width="50" height="50" relative="1" as="geometry">
            <mxPoint x="160" y="371" as="sourcePoint" />
            <mxPoint x="200" y="371" as="targetPoint" />
          </mxGeometry>
        </mxCell>
        <mxCell id="aomzPrE-w1fCoq5hA7JI-10" value="" style="endArrow=classic;html=1;rounded=0;" parent="1" edge="1">
          <mxGeometry width="50" height="50" relative="1" as="geometry">
            <mxPoint x="160" y="350.46999999999997" as="sourcePoint" />
            <mxPoint x="200" y="350.46999999999997" as="targetPoint" />
          </mxGeometry>
        </mxCell>
        <mxCell id="aomzPrE-w1fCoq5hA7JI-11" value="" style="endArrow=classic;html=1;rounded=0;" parent="1" edge="1">
          <mxGeometry width="50" height="50" relative="1" as="geometry">
            <mxPoint x="160" y="340" as="sourcePoint" />
            <mxPoint x="200" y="340" as="targetPoint" />
          </mxGeometry>
        </mxCell>
        <mxCell id="aomzPrE-w1fCoq5hA7JI-12" value="" style="endArrow=classic;html=1;rounded=0;" parent="1" edge="1">
          <mxGeometry width="50" height="50" relative="1" as="geometry">
            <mxPoint x="160" y="361" as="sourcePoint" />
            <mxPoint x="200" y="361" as="targetPoint" />
          </mxGeometry>
        </mxCell>
        <mxCell id="aomzPrE-w1fCoq5hA7JI-15" value="" style="shape=waypoint;sketch=0;fillStyle=solid;size=6;pointerEvents=1;points=[];fillColor=none;resizable=0;rotatable=0;perimeter=centerPerimeter;snapToPoint=1;rounded=0;" parent="1" vertex="1">
          <mxGeometry x="390" y="320" width="20" height="20" as="geometry" />
        </mxCell>
        <mxCell id="aomzPrE-w1fCoq5hA7JI-16" value="" style="endArrow=none;html=1;rounded=0;exitX=0;exitY=0.5;exitDx=0;exitDy=0;" parent="1" source="aomzPrE-w1fCoq5hA7JI-6" target="aomzPrE-w1fCoq5hA7JI-7" edge="1">
          <mxGeometry width="50" height="50" relative="1" as="geometry">
            <mxPoint x="340" y="340" as="sourcePoint" />
            <mxPoint x="390" y="290" as="targetPoint" />
            <Array as="points">
              <mxPoint x="360" y="300" />
            </Array>
          </mxGeometry>
        </mxCell>
        <mxCell id="aomzPrE-w1fCoq5hA7JI-17" value="" style="endArrow=none;html=1;rounded=0;" parent="1" source="aomzPrE-w1fCoq5hA7JI-7" target="aomzPrE-w1fCoq5hA7JI-15" edge="1">
          <mxGeometry width="50" height="50" relative="1" as="geometry">
            <mxPoint x="340" y="340" as="sourcePoint" />
            <mxPoint x="390" y="290" as="targetPoint" />
          </mxGeometry>
        </mxCell>
        <mxCell id="aomzPrE-w1fCoq5hA7JI-18" value="PU" style="rounded=0;whiteSpace=wrap;html=1;fillColor=#b0e3e6;strokeColor=#0e8088;" parent="1" vertex="1">
          <mxGeometry x="382" y="272" width="36" height="20" as="geometry" />
        </mxCell>
        <mxCell id="aomzPrE-w1fCoq5hA7JI-19" value="PD" style="rounded=0;whiteSpace=wrap;html=1;fillColor=#b0e3e6;strokeColor=#0e8088;" parent="1" vertex="1">
          <mxGeometry x="382" y="359.5" width="36" height="20" as="geometry" />
        </mxCell>
        <mxCell id="aomzPrE-w1fCoq5hA7JI-20" value="" style="endArrow=none;html=1;rounded=0;" parent="1" source="aomzPrE-w1fCoq5hA7JI-15" edge="1">
          <mxGeometry width="50" height="50" relative="1" as="geometry">
            <mxPoint x="350" y="342" as="sourcePoint" />
            <mxPoint x="400" y="292" as="targetPoint" />
          </mxGeometry>
        </mxCell>
        <mxCell id="aomzPrE-w1fCoq5hA7JI-21" value="" style="endArrow=none;html=1;rounded=0;exitX=0.5;exitY=0;exitDx=0;exitDy=0;entryX=0.516;entryY=0.667;entryDx=0;entryDy=0;entryPerimeter=0;" parent="1" source="aomzPrE-w1fCoq5hA7JI-19" target="aomzPrE-w1fCoq5hA7JI-15" edge="1">
          <mxGeometry width="50" height="50" relative="1" as="geometry">
            <mxPoint x="340" y="340" as="sourcePoint" />
            <mxPoint x="390" y="290" as="targetPoint" />
          </mxGeometry>
        </mxCell>
        <mxCell id="aomzPrE-w1fCoq5hA7JI-22" value="" style="endArrow=none;html=1;rounded=0;" parent="1" source="aomzPrE-w1fCoq5hA7JI-15" edge="1">
          <mxGeometry width="50" height="50" relative="1" as="geometry">
            <mxPoint x="340" y="340" as="sourcePoint" />
            <mxPoint x="450" y="330" as="targetPoint" />
          </mxGeometry>
        </mxCell>
        <mxCell id="aomzPrE-w1fCoq5hA7JI-23" value="Pin" style="rounded=0;whiteSpace=wrap;html=1;fillColor=#b0e3e6;strokeColor=#0e8088;" parent="1" vertex="1">
          <mxGeometry x="450" y="319.5" width="36" height="20" as="geometry" />
        </mxCell>
        <mxCell id="aomzPrE-w1fCoq5hA7JI-24" value="" style="endArrow=classic;html=1;rounded=0;exitX=1;exitY=0.5;exitDx=0;exitDy=0;" parent="1" source="aomzPrE-w1fCoq5hA7JI-6" edge="1">
          <mxGeometry width="50" height="50" relative="1" as="geometry">
            <mxPoint x="190" y="330" as="sourcePoint" />
            <mxPoint x="160" y="300" as="targetPoint" />
          </mxGeometry>
        </mxCell>
        <mxCell id="aomzPrE-w1fCoq5hA7JI-25" value="" style="endArrow=none;dashed=1;html=1;rounded=0;exitX=0;exitY=0.5;exitDx=0;exitDy=0;entryX=0.658;entryY=1.034;entryDx=0;entryDy=0;entryPerimeter=0;startArrow=classic;startFill=1;" parent="1" source="aomzPrE-w1fCoq5hA7JI-4" target="aomzPrE-w1fCoq5hA7JI-1" edge="1">
          <mxGeometry width="50" height="50" relative="1" as="geometry">
            <mxPoint x="170" y="330" as="sourcePoint" />
            <mxPoint x="220" y="280" as="targetPoint" />
          </mxGeometry>
        </mxCell>
        <mxCell id="aomzPrE-w1fCoq5hA7JI-26" value="" style="endArrow=none;dashed=1;html=1;rounded=0;entryX=1;entryY=0.75;entryDx=0;entryDy=0;exitX=0.5;exitY=0;exitDx=0;exitDy=0;startArrow=classic;startFill=1;" parent="1" source="aomzPrE-w1fCoq5hA7JI-5" target="aomzPrE-w1fCoq5hA7JI-1" edge="1">
          <mxGeometry width="50" height="50" relative="1" as="geometry">
            <mxPoint x="190" y="330" as="sourcePoint" />
            <mxPoint x="240" y="280" as="targetPoint" />
            <Array as="points">
              <mxPoint x="310" y="330" />
              <mxPoint x="270" y="330" />
              <mxPoint x="270" y="270" />
            </Array>
          </mxGeometry>
        </mxCell>
        <mxCell id="aomzPrE-w1fCoq5hA7JI-27" value="" style="endArrow=classic;dashed=1;html=1;rounded=0;exitX=1.016;exitY=0.604;exitDx=0;exitDy=0;exitPerimeter=0;entryX=0.519;entryY=0.897;entryDx=0;entryDy=0;entryPerimeter=0;endFill=1;" parent="1" source="aomzPrE-w1fCoq5hA7JI-1" target="aomzPrE-w1fCoq5hA7JI-6" edge="1">
          <mxGeometry width="50" height="50" relative="1" as="geometry">
            <mxPoint x="240" y="272" as="sourcePoint" />
            <mxPoint x="290" y="222" as="targetPoint" />
            <Array as="points">
              <mxPoint x="300" y="264" />
              <mxPoint x="300" y="280" />
              <mxPoint x="310" y="280" />
            </Array>
          </mxGeometry>
        </mxCell>
        <mxCell id="aomzPrE-w1fCoq5hA7JI-28" value="" style="endArrow=none;dashed=1;html=1;rounded=0;entryX=1;entryY=0.5;entryDx=0;entryDy=0;exitX=0;exitY=0.5;exitDx=0;exitDy=0;endFill=0;startArrow=classic;startFill=1;" parent="1" source="aomzPrE-w1fCoq5hA7JI-19" target="aomzPrE-w1fCoq5hA7JI-1" edge="1">
          <mxGeometry width="50" height="50" relative="1" as="geometry">
            <mxPoint x="190" y="330" as="sourcePoint" />
            <mxPoint x="240" y="280" as="targetPoint" />
            <Array as="points">
              <mxPoint x="350" y="370" />
              <mxPoint x="350" y="260" />
            </Array>
          </mxGeometry>
        </mxCell>
        <mxCell id="aomzPrE-w1fCoq5hA7JI-29" value="" style="endArrow=classic;dashed=1;html=1;rounded=0;exitX=1.003;exitY=0.266;exitDx=0;exitDy=0;exitPerimeter=0;endFill=1;" parent="1" source="aomzPrE-w1fCoq5hA7JI-1" edge="1">
          <mxGeometry width="50" height="50" relative="1" as="geometry">
            <mxPoint x="240" y="300" as="sourcePoint" />
            <mxPoint x="380" y="280" as="targetPoint" />
            <Array as="points">
              <mxPoint x="360" y="250" />
              <mxPoint x="360" y="280" />
            </Array>
          </mxGeometry>
        </mxCell>
        <mxCell id="aomzPrE-w1fCoq5hA7JI-34" value="General Purpose Input Output Basic Structure" style="text;strokeColor=none;align=center;fillColor=none;html=1;verticalAlign=middle;whiteSpace=wrap;rounded=0;" parent="1" vertex="1">
          <mxGeometry x="180" y="400" width="190" height="30" as="geometry" />
        </mxCell>
      </root>
    </mxGraphModel>
  </diagram>
  <diagram id="nVHrASJvIrqYEXHxHC4Y" name="GPIO的系统集成">
    <mxGraphModel dx="679" dy="361" grid="1" gridSize="10" guides="1" tooltips="1" connect="1" arrows="1" fold="1" page="1" pageScale="1" pageWidth="827" pageHeight="1169" math="0" shadow="0">
      <root>
        <mxCell id="0" />
        <mxCell id="1" parent="0" />
        <mxCell id="xTv7enSUr8ZYCLC8WEO0-53" value="" style="endArrow=none;html=1;fillColor=#d5e8d4;strokeColor=#000000;" parent="1" edge="1">
          <mxGeometry width="50" height="50" relative="1" as="geometry">
            <mxPoint x="563" y="664" as="sourcePoint" />
            <mxPoint x="563" y="676.24" as="targetPoint" />
          </mxGeometry>
        </mxCell>
        <mxCell id="xTv7enSUr8ZYCLC8WEO0-54" value="" style="endArrow=none;html=1;rounded=1;sourcePerimeterSpacing=0;fillColor=#d5e8d4;strokeColor=#000000;" parent="1" edge="1">
          <mxGeometry width="50" height="50" relative="1" as="geometry">
            <mxPoint x="558" y="664" as="sourcePoint" />
            <mxPoint x="568" y="664" as="targetPoint" />
          </mxGeometry>
        </mxCell>
        <mxCell id="deJe0oIHAHBzn2QRG-0J-4" value="Timer" style="rounded=0;whiteSpace=wrap;html=1;fillColor=#f5f5f5;fontColor=#333333;strokeColor=#666666;" parent="1" vertex="1">
          <mxGeometry x="120" y="120" width="80" height="40" as="geometry" />
        </mxCell>
        <mxCell id="deJe0oIHAHBzn2QRG-0J-5" value="&lt;div&gt;Communication&lt;/div&gt;&lt;div&gt;Peripherals&lt;/div&gt;" style="rounded=0;whiteSpace=wrap;html=1;fillColor=#f5f5f5;fontColor=#333333;strokeColor=#666666;" parent="1" vertex="1">
          <mxGeometry x="220" y="120" width="100" height="40" as="geometry" />
        </mxCell>
        <mxCell id="deJe0oIHAHBzn2QRG-0J-6" value="&lt;div&gt;CPUx&lt;/div&gt;&lt;div&gt;DMA&lt;/div&gt;" style="rounded=0;whiteSpace=wrap;html=1;fillColor=#f5f5f5;fontColor=#333333;strokeColor=#666666;" parent="1" vertex="1">
          <mxGeometry x="340" y="120" width="60" height="40" as="geometry" />
        </mxCell>
        <mxCell id="deJe0oIHAHBzn2QRG-0J-9" style="edgeStyle=orthogonalEdgeStyle;orthogonalLoop=1;jettySize=auto;html=1;entryX=0;entryY=0.5;entryDx=0;entryDy=0;" parent="1" source="deJe0oIHAHBzn2QRG-0J-7" target="deJe0oIHAHBzn2QRG-0J-8" edge="1">
          <mxGeometry relative="1" as="geometry" />
        </mxCell>
        <mxCell id="deJe0oIHAHBzn2QRG-0J-7" value="&lt;div&gt;ERU&lt;/div&gt;&lt;div&gt;External&lt;/div&gt;&lt;div&gt;Request Unit&lt;/div&gt;" style="rounded=0;whiteSpace=wrap;html=1;fillColor=#f5f5f5;fontColor=#333333;strokeColor=#666666;" parent="1" vertex="1">
          <mxGeometry x="420" y="120" width="100" height="40" as="geometry" />
        </mxCell>
        <mxCell id="deJe0oIHAHBzn2QRG-0J-8" value="&lt;div&gt;IR&lt;/div&gt;&lt;div&gt;Interrupt Router&lt;/div&gt;" style="rounded=0;whiteSpace=wrap;html=1;fillColor=#f5f5f5;fontColor=#333333;strokeColor=#666666;" parent="1" vertex="1">
          <mxGeometry x="540" y="120" width="100" height="40" as="geometry" />
        </mxCell>
        <mxCell id="deJe0oIHAHBzn2QRG-0J-10" value="Ports" style="rounded=0;whiteSpace=wrap;html=1;fillColor=#d5e8d4;strokeColor=#82b366;" parent="1" vertex="1">
          <mxGeometry x="120" y="200" width="400" height="30" as="geometry" />
        </mxCell>
        <mxCell id="deJe0oIHAHBzn2QRG-0J-16" value="" style="group" parent="1" vertex="1" connectable="0">
          <mxGeometry x="120" y="260" width="95" height="30" as="geometry" />
        </mxCell>
        <mxCell id="deJe0oIHAHBzn2QRG-0J-11" value="Pin" style="rounded=0;whiteSpace=wrap;html=1;fillColor=#d5e8d4;strokeColor=#000000;" parent="deJe0oIHAHBzn2QRG-0J-16" vertex="1">
          <mxGeometry width="30" height="30" as="geometry" />
        </mxCell>
        <mxCell id="deJe0oIHAHBzn2QRG-0J-12" value="Pin" style="rounded=0;whiteSpace=wrap;html=1;fillColor=#d5e8d4;strokeColor=default;" parent="deJe0oIHAHBzn2QRG-0J-16" vertex="1">
          <mxGeometry x="65" width="30" height="30" as="geometry" />
        </mxCell>
        <mxCell id="deJe0oIHAHBzn2QRG-0J-13" value="" style="endArrow=none;dashed=1;html=1;strokeWidth=1;" parent="deJe0oIHAHBzn2QRG-0J-16" edge="1">
          <mxGeometry width="50" height="50" relative="1" as="geometry">
            <mxPoint x="35" y="14.970000000000027" as="sourcePoint" />
            <mxPoint x="55" y="14.970000000000027" as="targetPoint" />
          </mxGeometry>
        </mxCell>
        <mxCell id="deJe0oIHAHBzn2QRG-0J-14" style="edgeStyle=orthogonalEdgeStyle;orthogonalLoop=1;jettySize=auto;html=1;entryX=0.037;entryY=1.009;entryDx=0;entryDy=0;entryPerimeter=0;rounded=0;curved=0;endArrow=none;endFill=0;" parent="deJe0oIHAHBzn2QRG-0J-16" source="deJe0oIHAHBzn2QRG-0J-11" target="deJe0oIHAHBzn2QRG-0J-10" edge="1">
          <mxGeometry relative="1" as="geometry" />
        </mxCell>
        <mxCell id="deJe0oIHAHBzn2QRG-0J-15" value="" style="endArrow=none;html=1;exitX=0.5;exitY=0;exitDx=0;exitDy=0;entryX=0.2;entryY=1.04;entryDx=0;entryDy=0;entryPerimeter=0;" parent="deJe0oIHAHBzn2QRG-0J-16" source="deJe0oIHAHBzn2QRG-0J-12" target="deJe0oIHAHBzn2QRG-0J-10" edge="1">
          <mxGeometry width="50" height="50" relative="1" as="geometry">
            <mxPoint x="40" y="20" as="sourcePoint" />
            <mxPoint x="90" y="-30" as="targetPoint" />
          </mxGeometry>
        </mxCell>
        <mxCell id="deJe0oIHAHBzn2QRG-0J-24" value="" style="group" parent="1" vertex="1" connectable="0">
          <mxGeometry x="245" y="230" width="95" height="60" as="geometry" />
        </mxCell>
        <mxCell id="deJe0oIHAHBzn2QRG-0J-17" value="" style="group" parent="deJe0oIHAHBzn2QRG-0J-24" vertex="1" connectable="0">
          <mxGeometry y="30" width="95" height="30" as="geometry" />
        </mxCell>
        <mxCell id="deJe0oIHAHBzn2QRG-0J-18" value="Pin" style="rounded=0;whiteSpace=wrap;html=1;fillColor=#d5e8d4;strokeColor=#000000;" parent="deJe0oIHAHBzn2QRG-0J-17" vertex="1">
          <mxGeometry width="30" height="30" as="geometry" />
        </mxCell>
        <mxCell id="deJe0oIHAHBzn2QRG-0J-19" value="Pin" style="rounded=0;whiteSpace=wrap;html=1;fillColor=#d5e8d4;strokeColor=default;" parent="deJe0oIHAHBzn2QRG-0J-17" vertex="1">
          <mxGeometry x="70" width="30" height="30" as="geometry" />
        </mxCell>
        <mxCell id="deJe0oIHAHBzn2QRG-0J-20" value="" style="endArrow=none;dashed=1;html=1;strokeWidth=1;" parent="deJe0oIHAHBzn2QRG-0J-17" edge="1">
          <mxGeometry width="50" height="50" relative="1" as="geometry">
            <mxPoint x="37.5" y="14.880000000000027" as="sourcePoint" />
            <mxPoint x="57.5" y="14.880000000000027" as="targetPoint" />
          </mxGeometry>
        </mxCell>
        <mxCell id="deJe0oIHAHBzn2QRG-0J-21" style="edgeStyle=orthogonalEdgeStyle;orthogonalLoop=1;jettySize=auto;html=1;entryX=0.037;entryY=1.009;entryDx=0;entryDy=0;entryPerimeter=0;rounded=0;curved=0;endArrow=none;endFill=0;" parent="deJe0oIHAHBzn2QRG-0J-17" source="deJe0oIHAHBzn2QRG-0J-18" edge="1">
          <mxGeometry relative="1" as="geometry" />
        </mxCell>
        <mxCell id="deJe0oIHAHBzn2QRG-0J-22" value="" style="endArrow=none;html=1;exitX=0.5;exitY=0;exitDx=0;exitDy=0;entryX=0.5;entryY=1;entryDx=0;entryDy=0;" parent="deJe0oIHAHBzn2QRG-0J-24" source="deJe0oIHAHBzn2QRG-0J-19" edge="1">
          <mxGeometry width="50" height="50" relative="1" as="geometry">
            <mxPoint x="90" y="30" as="sourcePoint" />
            <mxPoint x="85" as="targetPoint" />
          </mxGeometry>
        </mxCell>
        <mxCell id="deJe0oIHAHBzn2QRG-0J-23" value="" style="endArrow=none;html=1;exitX=0.5;exitY=0;exitDx=0;exitDy=0;entryX=0.5;entryY=1;entryDx=0;entryDy=0;" parent="deJe0oIHAHBzn2QRG-0J-24" edge="1">
          <mxGeometry width="50" height="50" relative="1" as="geometry">
            <mxPoint x="15" y="30" as="sourcePoint" />
            <mxPoint x="15" as="targetPoint" />
          </mxGeometry>
        </mxCell>
        <mxCell id="deJe0oIHAHBzn2QRG-0J-25" value="" style="group" parent="1" vertex="1" connectable="0">
          <mxGeometry x="385" y="230" width="95" height="60" as="geometry" />
        </mxCell>
        <mxCell id="deJe0oIHAHBzn2QRG-0J-26" value="" style="group" parent="deJe0oIHAHBzn2QRG-0J-25" vertex="1" connectable="0">
          <mxGeometry y="30" width="95" height="30" as="geometry" />
        </mxCell>
        <mxCell id="deJe0oIHAHBzn2QRG-0J-27" value="Pin" style="rounded=0;whiteSpace=wrap;html=1;fillColor=#d5e8d4;strokeColor=#000000;" parent="deJe0oIHAHBzn2QRG-0J-26" vertex="1">
          <mxGeometry width="30" height="30" as="geometry" />
        </mxCell>
        <mxCell id="deJe0oIHAHBzn2QRG-0J-28" value="Pin" style="rounded=0;whiteSpace=wrap;html=1;fillColor=#d5e8d4;strokeColor=default;" parent="deJe0oIHAHBzn2QRG-0J-26" vertex="1">
          <mxGeometry x="70" width="30" height="30" as="geometry" />
        </mxCell>
        <mxCell id="deJe0oIHAHBzn2QRG-0J-29" value="" style="endArrow=none;dashed=1;html=1;strokeWidth=1;" parent="deJe0oIHAHBzn2QRG-0J-26" edge="1">
          <mxGeometry width="50" height="50" relative="1" as="geometry">
            <mxPoint x="37.5" y="14.880000000000027" as="sourcePoint" />
            <mxPoint x="57.5" y="14.880000000000027" as="targetPoint" />
          </mxGeometry>
        </mxCell>
        <mxCell id="deJe0oIHAHBzn2QRG-0J-30" style="edgeStyle=orthogonalEdgeStyle;orthogonalLoop=1;jettySize=auto;html=1;entryX=0.037;entryY=1.009;entryDx=0;entryDy=0;entryPerimeter=0;rounded=0;curved=0;endArrow=none;endFill=0;" parent="deJe0oIHAHBzn2QRG-0J-26" source="deJe0oIHAHBzn2QRG-0J-27" edge="1">
          <mxGeometry relative="1" as="geometry" />
        </mxCell>
        <mxCell id="deJe0oIHAHBzn2QRG-0J-31" value="" style="endArrow=none;html=1;exitX=0.5;exitY=0;exitDx=0;exitDy=0;entryX=0.5;entryY=1;entryDx=0;entryDy=0;" parent="deJe0oIHAHBzn2QRG-0J-25" source="deJe0oIHAHBzn2QRG-0J-28" edge="1">
          <mxGeometry width="50" height="50" relative="1" as="geometry">
            <mxPoint x="90" y="30" as="sourcePoint" />
            <mxPoint x="85" as="targetPoint" />
          </mxGeometry>
        </mxCell>
        <mxCell id="deJe0oIHAHBzn2QRG-0J-32" value="" style="endArrow=none;html=1;exitX=0.5;exitY=0;exitDx=0;exitDy=0;entryX=0.5;entryY=1;entryDx=0;entryDy=0;" parent="deJe0oIHAHBzn2QRG-0J-25" edge="1">
          <mxGeometry width="50" height="50" relative="1" as="geometry">
            <mxPoint x="15" y="30" as="sourcePoint" />
            <mxPoint x="15" as="targetPoint" />
          </mxGeometry>
        </mxCell>
        <mxCell id="deJe0oIHAHBzn2QRG-0J-33" style="edgeStyle=orthogonalEdgeStyle;orthogonalLoop=1;jettySize=auto;html=1;entryX=0.099;entryY=-0.01;entryDx=0;entryDy=0;entryPerimeter=0;startArrow=classic;startFill=1;" parent="1" source="deJe0oIHAHBzn2QRG-0J-4" target="deJe0oIHAHBzn2QRG-0J-10" edge="1">
          <mxGeometry relative="1" as="geometry" />
        </mxCell>
        <mxCell id="deJe0oIHAHBzn2QRG-0J-34" style="edgeStyle=orthogonalEdgeStyle;orthogonalLoop=1;jettySize=auto;html=1;startArrow=classic;startFill=1;" parent="1" source="deJe0oIHAHBzn2QRG-0J-5" edge="1">
          <mxGeometry relative="1" as="geometry">
            <mxPoint x="270" y="200" as="targetPoint" />
          </mxGeometry>
        </mxCell>
        <mxCell id="deJe0oIHAHBzn2QRG-0J-36" style="edgeStyle=orthogonalEdgeStyle;orthogonalLoop=1;jettySize=auto;html=1;startArrow=classic;startFill=1;" parent="1" edge="1">
          <mxGeometry relative="1" as="geometry">
            <mxPoint x="469.75" y="160" as="sourcePoint" />
            <mxPoint x="469.75" y="200" as="targetPoint" />
          </mxGeometry>
        </mxCell>
        <mxCell id="deJe0oIHAHBzn2QRG-0J-38" value="" style="endArrow=classic;html=1;exitX=0.625;exitY=-0.014;exitDx=0;exitDy=0;exitPerimeter=0;startArrow=classic;startFill=1;endFill=1;" parent="1" source="deJe0oIHAHBzn2QRG-0J-10" edge="1">
          <mxGeometry width="50" height="50" relative="1" as="geometry">
            <mxPoint x="320" y="210" as="sourcePoint" />
            <mxPoint x="370" y="160" as="targetPoint" />
          </mxGeometry>
        </mxCell>
        <mxCell id="SiACdFjmiShFcIN8FBPT-46" value="" style="endArrow=none;html=1;fillColor=#d5e8d4;strokeColor=#82b366;" parent="1" edge="1">
          <mxGeometry width="50" height="50" relative="1" as="geometry">
            <mxPoint x="521.96" y="445.12" as="sourcePoint" />
            <mxPoint x="521.96" y="457.12" as="targetPoint" />
          </mxGeometry>
        </mxCell>
        <mxCell id="SiACdFjmiShFcIN8FBPT-58" value="&lt;font style=&quot;font-size: 8px;&quot;&gt;PMOS&lt;/font&gt;" style="text;strokeColor=none;align=center;fillColor=none;html=1;verticalAlign=middle;whiteSpace=wrap;rounded=0;" parent="1" vertex="1">
          <mxGeometry x="465" y="410" width="60" height="30" as="geometry" />
        </mxCell>
        <mxCell id="SiACdFjmiShFcIN8FBPT-59" value="&lt;font style=&quot;font-size: 8px;&quot;&gt;VDD&lt;/font&gt;" style="text;strokeColor=none;align=center;fillColor=none;html=1;verticalAlign=middle;whiteSpace=wrap;rounded=0;" parent="1" vertex="1">
          <mxGeometry x="493" y="400" width="60" height="30" as="geometry" />
        </mxCell>
        <mxCell id="SiACdFjmiShFcIN8FBPT-22" value="位设置寄存器" style="rounded=0;whiteSpace=wrap;html=1;textDirection=vertical-lr;fillColor=#FFD966;strokeColor=#000000;" parent="1" vertex="1">
          <mxGeometry x="255" y="360" width="30" height="90" as="geometry" />
        </mxCell>
        <mxCell id="SiACdFjmiShFcIN8FBPT-23" value="输出数据寄存器" style="rounded=0;whiteSpace=wrap;html=1;textDirection=vertical-lr;fillColor=#FFD966;" parent="1" vertex="1">
          <mxGeometry x="315" y="400" width="30" height="90" as="geometry" />
        </mxCell>
        <mxCell id="SiACdFjmiShFcIN8FBPT-24" value="" style="shape=trapezoid;perimeter=trapezoidPerimeter;whiteSpace=wrap;html=1;fixedSize=1;rotation=90;size=8.120000000000005;fillColor=#FFD966;" parent="1" vertex="1">
          <mxGeometry x="375" y="450" width="28.75" height="7.5" as="geometry" />
        </mxCell>
        <mxCell id="SiACdFjmiShFcIN8FBPT-25" value="&lt;div&gt;输出&lt;/div&gt;&lt;div&gt;控制&lt;/div&gt;" style="rounded=0;whiteSpace=wrap;html=1;fillColor=#FFD966;" parent="1" vertex="1">
          <mxGeometry x="429" y="430.63" width="46" height="46.25" as="geometry" />
        </mxCell>
        <mxCell id="SiACdFjmiShFcIN8FBPT-30" value="" style="endArrow=oval;html=1;exitX=1.035;exitY=0.236;exitDx=0;exitDy=0;exitPerimeter=0;endFill=0;endSize=2;fillColor=#dae8fc;strokeColor=#6c8ebf;" parent="1" edge="1">
          <mxGeometry width="50" height="50" relative="1" as="geometry">
            <mxPoint x="474" y="440.775" as="sourcePoint" />
            <mxPoint x="514" y="440" as="targetPoint" />
          </mxGeometry>
        </mxCell>
        <mxCell id="SiACdFjmiShFcIN8FBPT-31" value="" style="endArrow=none;html=1;exitX=1.035;exitY=0.236;exitDx=0;exitDy=0;exitPerimeter=0;fillColor=#e1d5e7;strokeColor=#9673a6;" parent="1" edge="1">
          <mxGeometry width="50" height="50" relative="1" as="geometry">
            <mxPoint x="475" y="470.775" as="sourcePoint" />
            <mxPoint x="515" y="470" as="targetPoint" />
          </mxGeometry>
        </mxCell>
        <mxCell id="SiACdFjmiShFcIN8FBPT-32" value="" style="endArrow=none;html=1;" parent="1" edge="1">
          <mxGeometry width="50" height="50" relative="1" as="geometry">
            <mxPoint x="515" y="445" as="sourcePoint" />
            <mxPoint x="515" y="435" as="targetPoint" />
          </mxGeometry>
        </mxCell>
        <mxCell id="SiACdFjmiShFcIN8FBPT-33" value="" style="endArrow=none;html=1;" parent="1" edge="1">
          <mxGeometry width="50" height="50" relative="1" as="geometry">
            <mxPoint x="515" y="440" as="sourcePoint" />
            <mxPoint x="515" y="440" as="targetPoint" />
          </mxGeometry>
        </mxCell>
        <mxCell id="SiACdFjmiShFcIN8FBPT-34" value="" style="endArrow=none;html=1;" parent="1" edge="1">
          <mxGeometry width="50" height="50" relative="1" as="geometry">
            <mxPoint x="515" y="475.88" as="sourcePoint" />
            <mxPoint x="515" y="465.88" as="targetPoint" />
          </mxGeometry>
        </mxCell>
        <mxCell id="SiACdFjmiShFcIN8FBPT-35" value="" style="endArrow=none;html=1;fillColor=#f8cecc;strokeColor=#b85450;" parent="1" edge="1">
          <mxGeometry width="50" height="50" relative="1" as="geometry">
            <mxPoint x="517" y="475.88" as="sourcePoint" />
            <mxPoint x="517" y="465.88" as="targetPoint" />
          </mxGeometry>
        </mxCell>
        <mxCell id="SiACdFjmiShFcIN8FBPT-37" value="" style="endArrow=none;html=1;fillColor=#f8cecc;strokeColor=#b85450;" parent="1" edge="1">
          <mxGeometry width="50" height="50" relative="1" as="geometry">
            <mxPoint x="517" y="466" as="sourcePoint" />
            <mxPoint x="522" y="466" as="targetPoint" />
          </mxGeometry>
        </mxCell>
        <mxCell id="SiACdFjmiShFcIN8FBPT-38" value="" style="endArrow=none;html=1;fillColor=#f8cecc;strokeColor=#b85450;" parent="1" edge="1">
          <mxGeometry width="50" height="50" relative="1" as="geometry">
            <mxPoint x="522" y="453.76" as="sourcePoint" />
            <mxPoint x="522" y="466" as="targetPoint" />
          </mxGeometry>
        </mxCell>
        <mxCell id="SiACdFjmiShFcIN8FBPT-39" value="" style="endArrow=none;html=1;fillColor=#f8cecc;strokeColor=#b85450;" parent="1" edge="1">
          <mxGeometry width="50" height="50" relative="1" as="geometry">
            <mxPoint x="517" y="475.88" as="sourcePoint" />
            <mxPoint x="522" y="476" as="targetPoint" />
          </mxGeometry>
        </mxCell>
        <mxCell id="SiACdFjmiShFcIN8FBPT-40" value="" style="endArrow=none;html=1;fillColor=#f8cecc;strokeColor=#b85450;" parent="1" edge="1">
          <mxGeometry width="50" height="50" relative="1" as="geometry">
            <mxPoint x="521.96" y="475.88" as="sourcePoint" />
            <mxPoint x="521.96" y="487.88" as="targetPoint" />
          </mxGeometry>
        </mxCell>
        <mxCell id="SiACdFjmiShFcIN8FBPT-42" value="" style="endArrow=none;html=1;fillColor=#d5e8d4;strokeColor=#82b366;" parent="1" edge="1">
          <mxGeometry width="50" height="50" relative="1" as="geometry">
            <mxPoint x="517" y="445.12" as="sourcePoint" />
            <mxPoint x="517" y="435.12" as="targetPoint" />
          </mxGeometry>
        </mxCell>
        <mxCell id="SiACdFjmiShFcIN8FBPT-43" value="" style="endArrow=none;html=1;fillColor=#d5e8d4;strokeColor=#82b366;" parent="1" edge="1">
          <mxGeometry width="50" height="50" relative="1" as="geometry">
            <mxPoint x="517" y="435.24" as="sourcePoint" />
            <mxPoint x="522" y="435.24" as="targetPoint" />
          </mxGeometry>
        </mxCell>
        <mxCell id="SiACdFjmiShFcIN8FBPT-44" value="" style="endArrow=none;html=1;fillColor=#d5e8d4;strokeColor=#82b366;" parent="1" edge="1">
          <mxGeometry width="50" height="50" relative="1" as="geometry">
            <mxPoint x="522" y="423" as="sourcePoint" />
            <mxPoint x="522" y="435.24" as="targetPoint" />
          </mxGeometry>
        </mxCell>
        <mxCell id="SiACdFjmiShFcIN8FBPT-45" value="" style="endArrow=none;html=1;fillColor=#d5e8d4;strokeColor=#82b366;" parent="1" edge="1">
          <mxGeometry width="50" height="50" relative="1" as="geometry">
            <mxPoint x="517" y="445.12" as="sourcePoint" />
            <mxPoint x="522" y="445.24" as="targetPoint" />
          </mxGeometry>
        </mxCell>
        <mxCell id="SiACdFjmiShFcIN8FBPT-47" value="" style="endArrow=none;html=1;rounded=1;fillColor=#f8cecc;strokeColor=#b85450;" parent="1" edge="1">
          <mxGeometry width="50" height="50" relative="1" as="geometry">
            <mxPoint x="517" y="488" as="sourcePoint" />
            <mxPoint x="527" y="488" as="targetPoint" />
          </mxGeometry>
        </mxCell>
        <mxCell id="SiACdFjmiShFcIN8FBPT-48" value="" style="endArrow=none;html=1;rounded=1;fillColor=#f8cecc;strokeColor=#b85450;" parent="1" edge="1">
          <mxGeometry width="50" height="50" relative="1" as="geometry">
            <mxPoint x="519" y="492" as="sourcePoint" />
            <mxPoint x="524" y="492" as="targetPoint" />
          </mxGeometry>
        </mxCell>
        <mxCell id="SiACdFjmiShFcIN8FBPT-49" value="" style="endArrow=none;html=1;rounded=1;fillColor=#f8cecc;strokeColor=#b85450;" parent="1" edge="1">
          <mxGeometry width="50" height="50" relative="1" as="geometry">
            <mxPoint x="518" y="490" as="sourcePoint" />
            <mxPoint x="525" y="490" as="targetPoint" />
          </mxGeometry>
        </mxCell>
        <mxCell id="SiACdFjmiShFcIN8FBPT-50" value="" style="endArrow=none;html=1;rounded=1;sourcePerimeterSpacing=0;fillColor=#d5e8d4;strokeColor=#82b366;" parent="1" edge="1">
          <mxGeometry width="50" height="50" relative="1" as="geometry">
            <mxPoint x="517" y="423" as="sourcePoint" />
            <mxPoint x="527" y="423" as="targetPoint" />
          </mxGeometry>
        </mxCell>
        <mxCell id="SiACdFjmiShFcIN8FBPT-51" value="" style="endArrow=classicThin;html=1;rounded=1;endFill=1;" parent="1" edge="1">
          <mxGeometry width="50" height="50" relative="1" as="geometry">
            <mxPoint x="185" y="400" as="sourcePoint" />
            <mxPoint x="255" y="400" as="targetPoint" />
          </mxGeometry>
        </mxCell>
        <mxCell id="SiACdFjmiShFcIN8FBPT-52" value="" style="endArrow=classicThin;html=1;rounded=1;startArrow=classicThin;startFill=1;endFill=1;" parent="1" edge="1">
          <mxGeometry width="50" height="50" relative="1" as="geometry">
            <mxPoint x="185" y="470" as="sourcePoint" />
            <mxPoint x="315" y="470" as="targetPoint" />
          </mxGeometry>
        </mxCell>
        <mxCell id="SiACdFjmiShFcIN8FBPT-53" value="" style="endArrow=classicThin;html=1;rounded=1;endFill=1;" parent="1" edge="1">
          <mxGeometry width="50" height="50" relative="1" as="geometry">
            <mxPoint x="285" y="420" as="sourcePoint" />
            <mxPoint x="315" y="420" as="targetPoint" />
          </mxGeometry>
        </mxCell>
        <mxCell id="SiACdFjmiShFcIN8FBPT-54" value="" style="endArrow=none;html=1;rounded=1;exitX=1.046;exitY=0.502;exitDx=0;exitDy=0;exitPerimeter=0;endFill=0;" parent="1" source="SiACdFjmiShFcIN8FBPT-23" edge="1">
          <mxGeometry width="50" height="50" relative="1" as="geometry">
            <mxPoint x="355" y="444.9" as="sourcePoint" />
            <mxPoint x="385" y="444.9" as="targetPoint" />
          </mxGeometry>
        </mxCell>
        <mxCell id="SiACdFjmiShFcIN8FBPT-55" value="" style="endArrow=none;html=1;rounded=0;endFill=0;curved=0;" parent="1" edge="1">
          <mxGeometry width="50" height="50" relative="1" as="geometry">
            <mxPoint x="180" y="510" as="sourcePoint" />
            <mxPoint x="386" y="462" as="targetPoint" />
            <Array as="points">
              <mxPoint x="365" y="510" />
              <mxPoint x="365" y="462" />
            </Array>
          </mxGeometry>
        </mxCell>
        <mxCell id="SiACdFjmiShFcIN8FBPT-56" value="" style="endArrow=classicThin;html=1;rounded=1;exitX=0.5;exitY=0;exitDx=0;exitDy=0;endFill=1;" parent="1" source="SiACdFjmiShFcIN8FBPT-24" edge="1">
          <mxGeometry width="50" height="50" relative="1" as="geometry">
            <mxPoint x="390" y="453.76000000000005" as="sourcePoint" />
            <mxPoint x="429" y="453.66" as="targetPoint" />
          </mxGeometry>
        </mxCell>
        <mxCell id="SiACdFjmiShFcIN8FBPT-57" value="&lt;font style=&quot;font-size: 8px;&quot;&gt;NMOS&lt;/font&gt;" style="text;strokeColor=none;align=center;fillColor=none;html=1;verticalAlign=middle;whiteSpace=wrap;rounded=0;" parent="1" vertex="1">
          <mxGeometry x="465" y="476.88" width="60" height="30" as="geometry" />
        </mxCell>
        <mxCell id="SiACdFjmiShFcIN8FBPT-60" value="写入" style="text;strokeColor=none;align=center;fillColor=none;html=1;verticalAlign=middle;whiteSpace=wrap;rounded=0;" parent="1" vertex="1">
          <mxGeometry x="185" y="370" width="60" height="30" as="geometry" />
        </mxCell>
        <mxCell id="SiACdFjmiShFcIN8FBPT-61" value="读写" style="text;strokeColor=none;align=center;fillColor=none;html=1;verticalAlign=middle;whiteSpace=wrap;rounded=0;" parent="1" vertex="1">
          <mxGeometry x="185" y="440" width="60" height="30" as="geometry" />
        </mxCell>
        <mxCell id="SiACdFjmiShFcIN8FBPT-62" value="复用功能输出" style="text;strokeColor=none;align=center;fillColor=none;html=1;verticalAlign=middle;whiteSpace=wrap;rounded=0;" parent="1" vertex="1">
          <mxGeometry x="185" y="480" width="80" height="30" as="geometry" />
        </mxCell>
        <mxCell id="SiACdFjmiShFcIN8FBPT-41" value="" style="endArrow=oval;html=1;rounded=1;endFill=0;strokeWidth=1;endSize=3;startArrow=oval;startFill=1;startSize=3;" parent="1" edge="1">
          <mxGeometry width="50" height="50" relative="1" as="geometry">
            <mxPoint x="522" y="453.76" as="sourcePoint" />
            <mxPoint x="552" y="454" as="targetPoint" />
          </mxGeometry>
        </mxCell>
        <mxCell id="xTv7enSUr8ZYCLC8WEO0-3" value="&lt;div style=&quot;line-height: 0%;&quot;&gt;&lt;p align=&quot;left&quot;&gt;&lt;font style=&quot;font-size: 10px;&quot;&gt;推挽输出/复用推挽输出&lt;/font&gt;&lt;/p&gt;&lt;/div&gt;" style="text;strokeColor=none;align=left;fillColor=none;html=1;verticalAlign=middle;whiteSpace=wrap;rounded=0;" parent="1" vertex="1">
          <mxGeometry x="315" y="520" width="110" height="30" as="geometry" />
        </mxCell>
        <mxCell id="xTv7enSUr8ZYCLC8WEO0-44" value="&lt;font style=&quot;font-size: 8px;&quot;&gt;上拉PMOS导通输出高电平&lt;/font&gt;" style="text;strokeColor=none;align=center;fillColor=none;html=1;verticalAlign=middle;whiteSpace=wrap;rounded=0;" parent="1" vertex="1">
          <mxGeometry x="565" y="400" width="60" height="30" as="geometry" />
        </mxCell>
        <mxCell id="xTv7enSUr8ZYCLC8WEO0-45" value="&lt;font style=&quot;font-size: 8px;&quot;&gt;下拉NMOS导通输出低电平&lt;/font&gt;" style="text;strokeColor=none;align=center;fillColor=none;html=1;verticalAlign=middle;whiteSpace=wrap;rounded=0;" parent="1" vertex="1">
          <mxGeometry x="565" y="470" width="60" height="30" as="geometry" />
        </mxCell>
        <mxCell id="xTv7enSUr8ZYCLC8WEO0-6" value="" style="endArrow=none;html=1;fillColor=#d5e8d4;strokeColor=#82b366;" parent="1" edge="1">
          <mxGeometry width="50" height="50" relative="1" as="geometry">
            <mxPoint x="511.96" y="695.12" as="sourcePoint" />
            <mxPoint x="511.96" y="707.12" as="targetPoint" />
          </mxGeometry>
        </mxCell>
        <mxCell id="xTv7enSUr8ZYCLC8WEO0-7" value="&lt;font style=&quot;font-size: 8px;&quot;&gt;PMOS&lt;/font&gt;" style="text;strokeColor=none;align=center;fillColor=none;html=1;verticalAlign=middle;whiteSpace=wrap;rounded=0;" parent="1" vertex="1">
          <mxGeometry x="455" y="660" width="60" height="30" as="geometry" />
        </mxCell>
        <mxCell id="xTv7enSUr8ZYCLC8WEO0-8" value="&lt;font style=&quot;font-size: 8px;&quot;&gt;VDD&lt;/font&gt;" style="text;strokeColor=none;align=center;fillColor=none;html=1;verticalAlign=middle;whiteSpace=wrap;rounded=0;" parent="1" vertex="1">
          <mxGeometry x="483" y="650" width="60" height="30" as="geometry" />
        </mxCell>
        <mxCell id="xTv7enSUr8ZYCLC8WEO0-9" value="位设置寄存器" style="rounded=0;whiteSpace=wrap;html=1;textDirection=vertical-lr;fillColor=#FFD966;strokeColor=#000000;" parent="1" vertex="1">
          <mxGeometry x="245" y="610" width="30" height="90" as="geometry" />
        </mxCell>
        <mxCell id="xTv7enSUr8ZYCLC8WEO0-10" value="输出数据寄存器" style="rounded=0;whiteSpace=wrap;html=1;textDirection=vertical-lr;fillColor=#FFD966;" parent="1" vertex="1">
          <mxGeometry x="305" y="650" width="30" height="90" as="geometry" />
        </mxCell>
        <mxCell id="xTv7enSUr8ZYCLC8WEO0-11" value="" style="shape=trapezoid;perimeter=trapezoidPerimeter;whiteSpace=wrap;html=1;fixedSize=1;rotation=90;size=8.120000000000005;fillColor=#FFD966;" parent="1" vertex="1">
          <mxGeometry x="365" y="700" width="28.75" height="7.5" as="geometry" />
        </mxCell>
        <mxCell id="xTv7enSUr8ZYCLC8WEO0-12" value="&lt;div&gt;输出&lt;/div&gt;&lt;div&gt;控制&lt;/div&gt;" style="rounded=0;whiteSpace=wrap;html=1;fillColor=#FFD966;" parent="1" vertex="1">
          <mxGeometry x="419" y="680.63" width="46" height="46.25" as="geometry" />
        </mxCell>
        <mxCell id="xTv7enSUr8ZYCLC8WEO0-13" value="" style="endArrow=oval;html=1;exitX=1.035;exitY=0.236;exitDx=0;exitDy=0;exitPerimeter=0;endFill=0;endSize=2;fillColor=#dae8fc;strokeColor=#6c8ebf;" parent="1" edge="1">
          <mxGeometry width="50" height="50" relative="1" as="geometry">
            <mxPoint x="464" y="690.775" as="sourcePoint" />
            <mxPoint x="504" y="690" as="targetPoint" />
          </mxGeometry>
        </mxCell>
        <mxCell id="xTv7enSUr8ZYCLC8WEO0-14" value="" style="endArrow=none;html=1;exitX=1.035;exitY=0.236;exitDx=0;exitDy=0;exitPerimeter=0;fillColor=#e1d5e7;strokeColor=#9673a6;" parent="1" edge="1">
          <mxGeometry width="50" height="50" relative="1" as="geometry">
            <mxPoint x="465" y="720.775" as="sourcePoint" />
            <mxPoint x="505" y="720" as="targetPoint" />
          </mxGeometry>
        </mxCell>
        <mxCell id="xTv7enSUr8ZYCLC8WEO0-15" value="" style="endArrow=none;html=1;" parent="1" edge="1">
          <mxGeometry width="50" height="50" relative="1" as="geometry">
            <mxPoint x="505" y="695" as="sourcePoint" />
            <mxPoint x="505" y="685" as="targetPoint" />
          </mxGeometry>
        </mxCell>
        <mxCell id="xTv7enSUr8ZYCLC8WEO0-16" value="" style="endArrow=none;html=1;" parent="1" edge="1">
          <mxGeometry width="50" height="50" relative="1" as="geometry">
            <mxPoint x="505" y="690" as="sourcePoint" />
            <mxPoint x="505" y="690" as="targetPoint" />
          </mxGeometry>
        </mxCell>
        <mxCell id="xTv7enSUr8ZYCLC8WEO0-17" value="" style="endArrow=none;html=1;" parent="1" edge="1">
          <mxGeometry width="50" height="50" relative="1" as="geometry">
            <mxPoint x="505" y="725.88" as="sourcePoint" />
            <mxPoint x="505" y="715.88" as="targetPoint" />
          </mxGeometry>
        </mxCell>
        <mxCell id="xTv7enSUr8ZYCLC8WEO0-18" value="" style="endArrow=none;html=1;fillColor=#f8cecc;strokeColor=#b85450;" parent="1" edge="1">
          <mxGeometry width="50" height="50" relative="1" as="geometry">
            <mxPoint x="507" y="725.88" as="sourcePoint" />
            <mxPoint x="507" y="715.88" as="targetPoint" />
          </mxGeometry>
        </mxCell>
        <mxCell id="xTv7enSUr8ZYCLC8WEO0-19" value="" style="endArrow=none;html=1;fillColor=#f8cecc;strokeColor=#b85450;" parent="1" edge="1">
          <mxGeometry width="50" height="50" relative="1" as="geometry">
            <mxPoint x="507" y="716" as="sourcePoint" />
            <mxPoint x="512" y="716" as="targetPoint" />
          </mxGeometry>
        </mxCell>
        <mxCell id="xTv7enSUr8ZYCLC8WEO0-20" value="" style="endArrow=none;html=1;fillColor=#f8cecc;strokeColor=#b85450;" parent="1" edge="1">
          <mxGeometry width="50" height="50" relative="1" as="geometry">
            <mxPoint x="512" y="703.76" as="sourcePoint" />
            <mxPoint x="512" y="716" as="targetPoint" />
          </mxGeometry>
        </mxCell>
        <mxCell id="xTv7enSUr8ZYCLC8WEO0-21" value="" style="endArrow=none;html=1;fillColor=#f8cecc;strokeColor=#b85450;" parent="1" edge="1">
          <mxGeometry width="50" height="50" relative="1" as="geometry">
            <mxPoint x="507" y="725.88" as="sourcePoint" />
            <mxPoint x="512" y="726" as="targetPoint" />
          </mxGeometry>
        </mxCell>
        <mxCell id="xTv7enSUr8ZYCLC8WEO0-22" value="" style="endArrow=none;html=1;fillColor=#f8cecc;strokeColor=#b85450;" parent="1" edge="1">
          <mxGeometry width="50" height="50" relative="1" as="geometry">
            <mxPoint x="511.96" y="725.88" as="sourcePoint" />
            <mxPoint x="511.96" y="737.88" as="targetPoint" />
          </mxGeometry>
        </mxCell>
        <mxCell id="xTv7enSUr8ZYCLC8WEO0-23" value="" style="endArrow=none;html=1;fillColor=#d5e8d4;strokeColor=#82b366;" parent="1" edge="1">
          <mxGeometry width="50" height="50" relative="1" as="geometry">
            <mxPoint x="507" y="695.12" as="sourcePoint" />
            <mxPoint x="507" y="685.12" as="targetPoint" />
          </mxGeometry>
        </mxCell>
        <mxCell id="xTv7enSUr8ZYCLC8WEO0-24" value="" style="endArrow=none;html=1;fillColor=#d5e8d4;strokeColor=#82b366;" parent="1" edge="1">
          <mxGeometry width="50" height="50" relative="1" as="geometry">
            <mxPoint x="507" y="685.24" as="sourcePoint" />
            <mxPoint x="512" y="685.24" as="targetPoint" />
          </mxGeometry>
        </mxCell>
        <mxCell id="xTv7enSUr8ZYCLC8WEO0-25" value="" style="endArrow=none;html=1;fillColor=#d5e8d4;strokeColor=#82b366;" parent="1" edge="1">
          <mxGeometry width="50" height="50" relative="1" as="geometry">
            <mxPoint x="512" y="673" as="sourcePoint" />
            <mxPoint x="512" y="685.24" as="targetPoint" />
          </mxGeometry>
        </mxCell>
        <mxCell id="xTv7enSUr8ZYCLC8WEO0-26" value="" style="endArrow=none;html=1;fillColor=#d5e8d4;strokeColor=#82b366;" parent="1" edge="1">
          <mxGeometry width="50" height="50" relative="1" as="geometry">
            <mxPoint x="507" y="695.12" as="sourcePoint" />
            <mxPoint x="512" y="695.24" as="targetPoint" />
          </mxGeometry>
        </mxCell>
        <mxCell id="xTv7enSUr8ZYCLC8WEO0-27" value="" style="endArrow=none;html=1;rounded=1;fillColor=#f8cecc;strokeColor=#b85450;" parent="1" edge="1">
          <mxGeometry width="50" height="50" relative="1" as="geometry">
            <mxPoint x="507" y="738" as="sourcePoint" />
            <mxPoint x="517" y="738" as="targetPoint" />
          </mxGeometry>
        </mxCell>
        <mxCell id="xTv7enSUr8ZYCLC8WEO0-28" value="" style="endArrow=none;html=1;rounded=1;fillColor=#f8cecc;strokeColor=#b85450;" parent="1" edge="1">
          <mxGeometry width="50" height="50" relative="1" as="geometry">
            <mxPoint x="509" y="742" as="sourcePoint" />
            <mxPoint x="514" y="742" as="targetPoint" />
          </mxGeometry>
        </mxCell>
        <mxCell id="xTv7enSUr8ZYCLC8WEO0-29" value="" style="endArrow=none;html=1;rounded=1;fillColor=#f8cecc;strokeColor=#b85450;" parent="1" edge="1">
          <mxGeometry width="50" height="50" relative="1" as="geometry">
            <mxPoint x="508" y="740" as="sourcePoint" />
            <mxPoint x="515" y="740" as="targetPoint" />
          </mxGeometry>
        </mxCell>
        <mxCell id="xTv7enSUr8ZYCLC8WEO0-30" value="" style="endArrow=none;html=1;rounded=1;sourcePerimeterSpacing=0;fillColor=#d5e8d4;strokeColor=#82b366;" parent="1" edge="1">
          <mxGeometry width="50" height="50" relative="1" as="geometry">
            <mxPoint x="507" y="673" as="sourcePoint" />
            <mxPoint x="517" y="673" as="targetPoint" />
          </mxGeometry>
        </mxCell>
        <mxCell id="xTv7enSUr8ZYCLC8WEO0-31" value="" style="endArrow=classicThin;html=1;rounded=1;endFill=1;" parent="1" edge="1">
          <mxGeometry width="50" height="50" relative="1" as="geometry">
            <mxPoint x="175" y="650" as="sourcePoint" />
            <mxPoint x="245" y="650" as="targetPoint" />
          </mxGeometry>
        </mxCell>
        <mxCell id="xTv7enSUr8ZYCLC8WEO0-32" value="" style="endArrow=classicThin;html=1;rounded=1;startArrow=classicThin;startFill=1;endFill=1;" parent="1" edge="1">
          <mxGeometry width="50" height="50" relative="1" as="geometry">
            <mxPoint x="175" y="720" as="sourcePoint" />
            <mxPoint x="305" y="720" as="targetPoint" />
          </mxGeometry>
        </mxCell>
        <mxCell id="xTv7enSUr8ZYCLC8WEO0-33" value="" style="endArrow=classicThin;html=1;rounded=1;endFill=1;" parent="1" edge="1">
          <mxGeometry width="50" height="50" relative="1" as="geometry">
            <mxPoint x="275" y="670" as="sourcePoint" />
            <mxPoint x="305" y="670" as="targetPoint" />
          </mxGeometry>
        </mxCell>
        <mxCell id="xTv7enSUr8ZYCLC8WEO0-34" value="" style="endArrow=none;html=1;rounded=1;exitX=1.046;exitY=0.502;exitDx=0;exitDy=0;exitPerimeter=0;endFill=0;" parent="1" source="xTv7enSUr8ZYCLC8WEO0-10" edge="1">
          <mxGeometry width="50" height="50" relative="1" as="geometry">
            <mxPoint x="345" y="694.9" as="sourcePoint" />
            <mxPoint x="375" y="694.9" as="targetPoint" />
          </mxGeometry>
        </mxCell>
        <mxCell id="xTv7enSUr8ZYCLC8WEO0-35" value="" style="endArrow=none;html=1;rounded=0;endFill=0;curved=0;exitX=1;exitY=0.5;exitDx=0;exitDy=0;" parent="1" source="H8QWTwi_FPeAmoCJHyxQ-4" edge="1">
          <mxGeometry width="50" height="50" relative="1" as="geometry">
            <mxPoint x="185" y="760" as="sourcePoint" />
            <mxPoint x="376" y="712" as="targetPoint" />
            <Array as="points">
              <mxPoint x="355" y="760" />
              <mxPoint x="355" y="712" />
            </Array>
          </mxGeometry>
        </mxCell>
        <mxCell id="xTv7enSUr8ZYCLC8WEO0-36" value="" style="endArrow=classicThin;html=1;rounded=1;exitX=0.5;exitY=0;exitDx=0;exitDy=0;endFill=1;" parent="1" source="xTv7enSUr8ZYCLC8WEO0-11" edge="1">
          <mxGeometry width="50" height="50" relative="1" as="geometry">
            <mxPoint x="380" y="703.76" as="sourcePoint" />
            <mxPoint x="419" y="703.6600000000001" as="targetPoint" />
          </mxGeometry>
        </mxCell>
        <mxCell id="xTv7enSUr8ZYCLC8WEO0-37" value="&lt;font style=&quot;font-size: 8px;&quot;&gt;NMOS&lt;/font&gt;" style="text;strokeColor=none;align=center;fillColor=none;html=1;verticalAlign=middle;whiteSpace=wrap;rounded=0;" parent="1" vertex="1">
          <mxGeometry x="455" y="726.88" width="60" height="30" as="geometry" />
        </mxCell>
        <mxCell id="xTv7enSUr8ZYCLC8WEO0-38" value="写入" style="text;strokeColor=none;align=center;fillColor=none;html=1;verticalAlign=middle;whiteSpace=wrap;rounded=0;" parent="1" vertex="1">
          <mxGeometry x="175" y="620" width="60" height="30" as="geometry" />
        </mxCell>
        <mxCell id="xTv7enSUr8ZYCLC8WEO0-39" value="读写" style="text;strokeColor=none;align=center;fillColor=none;html=1;verticalAlign=middle;whiteSpace=wrap;rounded=0;" parent="1" vertex="1">
          <mxGeometry x="175" y="690" width="60" height="30" as="geometry" />
        </mxCell>
        <mxCell id="xTv7enSUr8ZYCLC8WEO0-40" value="复用功能输出" style="text;strokeColor=none;align=center;fillColor=none;html=1;verticalAlign=middle;whiteSpace=wrap;rounded=0;" parent="1" vertex="1">
          <mxGeometry x="175" y="730" width="80" height="30" as="geometry" />
        </mxCell>
        <mxCell id="xTv7enSUr8ZYCLC8WEO0-41" value="" style="endArrow=oval;html=1;rounded=1;endFill=0;strokeWidth=1;endSize=3;startArrow=oval;startFill=1;startSize=3;" parent="1" edge="1">
          <mxGeometry width="50" height="50" relative="1" as="geometry">
            <mxPoint x="511.99999999999994" y="703.76" as="sourcePoint" />
            <mxPoint x="542" y="704" as="targetPoint" />
          </mxGeometry>
        </mxCell>
        <mxCell id="xTv7enSUr8ZYCLC8WEO0-42" value="开漏输出" style="text;strokeColor=none;align=left;fillColor=none;html=1;verticalAlign=middle;whiteSpace=wrap;rounded=0;" parent="1" vertex="1">
          <mxGeometry x="340" y="770" width="60" height="30" as="geometry" />
        </mxCell>
        <mxCell id="xTv7enSUr8ZYCLC8WEO0-46" value="&lt;div&gt;&lt;font style=&quot;font-size: 8px;&quot;&gt;PMOS永远截止上拉高阻态，无驱动&lt;/font&gt;&lt;/div&gt;" style="text;strokeColor=none;align=center;fillColor=none;html=1;verticalAlign=middle;whiteSpace=wrap;rounded=0;" parent="1" vertex="1">
          <mxGeometry x="585" y="660" width="70" height="30" as="geometry" />
        </mxCell>
        <mxCell id="xTv7enSUr8ZYCLC8WEO0-47" value="&lt;font style=&quot;font-size: 8px;&quot;&gt;下拉NMOS导通输出低电平&lt;/font&gt;" style="text;strokeColor=none;align=center;fillColor=none;html=1;verticalAlign=middle;whiteSpace=wrap;rounded=0;" parent="1" vertex="1">
          <mxGeometry x="585" y="720" width="60" height="30" as="geometry" />
        </mxCell>
        <mxCell id="xTv7enSUr8ZYCLC8WEO0-51" value="" style="pointerEvents=1;verticalLabelPosition=bottom;shadow=0;dashed=0;align=center;html=1;verticalAlign=top;shape=mxgraph.electrical.resistors.resistor_1;rounded=1;rotation=-90;" parent="1" vertex="1">
          <mxGeometry x="553" y="680.63" width="20" height="5" as="geometry" />
        </mxCell>
        <mxCell id="xTv7enSUr8ZYCLC8WEO0-52" value="" style="endArrow=none;html=1;rounded=0;entryX=0;entryY=0.5;entryDx=0;entryDy=0;entryPerimeter=0;curved=0;" parent="1" edge="1">
          <mxGeometry width="50" height="50" relative="1" as="geometry">
            <mxPoint x="544" y="704" as="sourcePoint" />
            <mxPoint x="563" y="693" as="targetPoint" />
            <Array as="points">
              <mxPoint x="563" y="704" />
            </Array>
          </mxGeometry>
        </mxCell>
        <mxCell id="xTv7enSUr8ZYCLC8WEO0-55" value="&lt;font style=&quot;font-size: 6px;&quot;&gt;5V&lt;/font&gt;" style="text;strokeColor=none;align=center;fillColor=none;html=1;verticalAlign=middle;whiteSpace=wrap;rounded=0;" parent="1" vertex="1">
          <mxGeometry x="548" y="650" width="30" height="10" as="geometry" />
        </mxCell>
        <mxCell id="xTv7enSUr8ZYCLC8WEO0-56" value="&lt;font style=&quot;font-size: 6px;&quot;&gt;外接电阻&lt;font&gt;提高驱动能力&lt;/font&gt;&lt;/font&gt;" style="text;strokeColor=none;align=center;fillColor=none;html=1;verticalAlign=middle;whiteSpace=wrap;rounded=0;" parent="1" vertex="1">
          <mxGeometry x="582" y="691" width="70" height="10" as="geometry" />
        </mxCell>
        <mxCell id="H8QWTwi_FPeAmoCJHyxQ-3" value="&lt;div&gt;UART&lt;/div&gt;&lt;div&gt;PWM&lt;/div&gt;" style="rounded=0;whiteSpace=wrap;html=1;" parent="1" vertex="1">
          <mxGeometry x="100" y="490" width="85" height="40" as="geometry" />
        </mxCell>
        <mxCell id="H8QWTwi_FPeAmoCJHyxQ-4" value="I&lt;sup&gt;2&lt;/sup&gt;C" style="rounded=0;whiteSpace=wrap;html=1;" parent="1" vertex="1">
          <mxGeometry x="80" y="740" width="85" height="40" as="geometry" />
        </mxCell>
        <mxCell id="H8QWTwi_FPeAmoCJHyxQ-72" value="" style="group" parent="1" vertex="1" connectable="0">
          <mxGeometry x="191" y="830" width="184" height="190" as="geometry" />
        </mxCell>
        <mxCell id="H8QWTwi_FPeAmoCJHyxQ-38" value="" style="group" parent="H8QWTwi_FPeAmoCJHyxQ-72" vertex="1" connectable="0">
          <mxGeometry width="100" height="50" as="geometry" />
        </mxCell>
        <mxCell id="H8QWTwi_FPeAmoCJHyxQ-33" value="" style="rounded=0;whiteSpace=wrap;html=1;fillColor=#f5f5f5;fontColor=#333333;strokeColor=#666666;" parent="H8QWTwi_FPeAmoCJHyxQ-38" vertex="1">
          <mxGeometry width="80" height="50" as="geometry" />
        </mxCell>
        <mxCell id="H8QWTwi_FPeAmoCJHyxQ-10" value="" style="endArrow=none;html=1;exitX=1.035;exitY=0.236;exitDx=0;exitDy=0;exitPerimeter=0;fillColor=#e1d5e7;strokeColor=#9673a6;" parent="H8QWTwi_FPeAmoCJHyxQ-38" edge="1">
          <mxGeometry width="50" height="50" relative="1" as="geometry">
            <mxPoint x="6" y="24" as="sourcePoint" />
            <mxPoint x="46" y="24" as="targetPoint" />
          </mxGeometry>
        </mxCell>
        <mxCell id="H8QWTwi_FPeAmoCJHyxQ-13" value="" style="endArrow=none;html=1;" parent="H8QWTwi_FPeAmoCJHyxQ-38" edge="1">
          <mxGeometry width="50" height="50" relative="1" as="geometry">
            <mxPoint x="46" y="29.88000000000011" as="sourcePoint" />
            <mxPoint x="46" y="19.879999999999995" as="targetPoint" />
          </mxGeometry>
        </mxCell>
        <mxCell id="H8QWTwi_FPeAmoCJHyxQ-14" value="" style="endArrow=none;html=1;fillColor=#f8cecc;strokeColor=#b85450;" parent="H8QWTwi_FPeAmoCJHyxQ-38" edge="1">
          <mxGeometry width="50" height="50" relative="1" as="geometry">
            <mxPoint x="48" y="29.88000000000011" as="sourcePoint" />
            <mxPoint x="48" y="19.879999999999995" as="targetPoint" />
          </mxGeometry>
        </mxCell>
        <mxCell id="H8QWTwi_FPeAmoCJHyxQ-15" value="" style="endArrow=none;html=1;fillColor=#f8cecc;strokeColor=#b85450;" parent="H8QWTwi_FPeAmoCJHyxQ-38" edge="1">
          <mxGeometry width="50" height="50" relative="1" as="geometry">
            <mxPoint x="48" y="20" as="sourcePoint" />
            <mxPoint x="53" y="20" as="targetPoint" />
          </mxGeometry>
        </mxCell>
        <mxCell id="H8QWTwi_FPeAmoCJHyxQ-16" value="" style="endArrow=none;html=1;fillColor=#f8cecc;strokeColor=#b85450;" parent="H8QWTwi_FPeAmoCJHyxQ-38" edge="1">
          <mxGeometry width="50" height="50" relative="1" as="geometry">
            <mxPoint x="53" y="3" as="sourcePoint" />
            <mxPoint x="53" y="20" as="targetPoint" />
          </mxGeometry>
        </mxCell>
        <mxCell id="H8QWTwi_FPeAmoCJHyxQ-17" value="" style="endArrow=none;html=1;fillColor=#f8cecc;strokeColor=#b85450;" parent="H8QWTwi_FPeAmoCJHyxQ-38" edge="1">
          <mxGeometry width="50" height="50" relative="1" as="geometry">
            <mxPoint x="48" y="29.88000000000011" as="sourcePoint" />
            <mxPoint x="53" y="30" as="targetPoint" />
          </mxGeometry>
        </mxCell>
        <mxCell id="H8QWTwi_FPeAmoCJHyxQ-18" value="" style="endArrow=none;html=1;fillColor=#f8cecc;strokeColor=#b85450;" parent="H8QWTwi_FPeAmoCJHyxQ-38" edge="1">
          <mxGeometry width="50" height="50" relative="1" as="geometry">
            <mxPoint x="52.95999999999998" y="29.88000000000011" as="sourcePoint" />
            <mxPoint x="52.95999999999998" y="41.88000000000011" as="targetPoint" />
          </mxGeometry>
        </mxCell>
        <mxCell id="H8QWTwi_FPeAmoCJHyxQ-23" value="" style="endArrow=none;html=1;rounded=1;fillColor=#f8cecc;strokeColor=#b85450;" parent="H8QWTwi_FPeAmoCJHyxQ-38" edge="1">
          <mxGeometry width="50" height="50" relative="1" as="geometry">
            <mxPoint x="48" y="42" as="sourcePoint" />
            <mxPoint x="58" y="42" as="targetPoint" />
          </mxGeometry>
        </mxCell>
        <mxCell id="H8QWTwi_FPeAmoCJHyxQ-24" value="" style="endArrow=none;html=1;rounded=1;fillColor=#f8cecc;strokeColor=#b85450;" parent="H8QWTwi_FPeAmoCJHyxQ-38" edge="1">
          <mxGeometry width="50" height="50" relative="1" as="geometry">
            <mxPoint x="50" y="46" as="sourcePoint" />
            <mxPoint x="55" y="46" as="targetPoint" />
          </mxGeometry>
        </mxCell>
        <mxCell id="H8QWTwi_FPeAmoCJHyxQ-25" value="" style="endArrow=none;html=1;rounded=1;fillColor=#f8cecc;strokeColor=#b85450;" parent="H8QWTwi_FPeAmoCJHyxQ-38" edge="1">
          <mxGeometry width="50" height="50" relative="1" as="geometry">
            <mxPoint x="49" y="44" as="sourcePoint" />
            <mxPoint x="56" y="44" as="targetPoint" />
          </mxGeometry>
        </mxCell>
        <mxCell id="H8QWTwi_FPeAmoCJHyxQ-35" value="" style="endArrow=oval;html=1;rounded=1;startArrow=oval;startFill=1;endFill=1;startSize=1;endSize=1;" parent="H8QWTwi_FPeAmoCJHyxQ-38" edge="1">
          <mxGeometry width="50" height="50" relative="1" as="geometry">
            <mxPoint x="104" y="8" as="sourcePoint" />
            <mxPoint x="53" y="8" as="targetPoint" />
          </mxGeometry>
        </mxCell>
        <mxCell id="H8QWTwi_FPeAmoCJHyxQ-39" value="" style="group" parent="H8QWTwi_FPeAmoCJHyxQ-72" vertex="1" connectable="0">
          <mxGeometry y="70" width="100" height="50" as="geometry" />
        </mxCell>
        <mxCell id="H8QWTwi_FPeAmoCJHyxQ-40" value="" style="rounded=0;whiteSpace=wrap;html=1;fillColor=#f5f5f5;fontColor=#333333;strokeColor=#666666;" parent="H8QWTwi_FPeAmoCJHyxQ-39" vertex="1">
          <mxGeometry width="80" height="50" as="geometry" />
        </mxCell>
        <mxCell id="H8QWTwi_FPeAmoCJHyxQ-41" value="" style="endArrow=none;html=1;exitX=1.035;exitY=0.236;exitDx=0;exitDy=0;exitPerimeter=0;fillColor=#e1d5e7;strokeColor=#9673a6;" parent="H8QWTwi_FPeAmoCJHyxQ-39" edge="1">
          <mxGeometry width="50" height="50" relative="1" as="geometry">
            <mxPoint x="6" y="24" as="sourcePoint" />
            <mxPoint x="46" y="24" as="targetPoint" />
          </mxGeometry>
        </mxCell>
        <mxCell id="H8QWTwi_FPeAmoCJHyxQ-42" value="" style="endArrow=none;html=1;" parent="H8QWTwi_FPeAmoCJHyxQ-39" edge="1">
          <mxGeometry width="50" height="50" relative="1" as="geometry">
            <mxPoint x="46" y="29.88000000000011" as="sourcePoint" />
            <mxPoint x="46" y="19.879999999999995" as="targetPoint" />
          </mxGeometry>
        </mxCell>
        <mxCell id="H8QWTwi_FPeAmoCJHyxQ-43" value="" style="endArrow=none;html=1;fillColor=#f8cecc;strokeColor=#b85450;" parent="H8QWTwi_FPeAmoCJHyxQ-39" edge="1">
          <mxGeometry width="50" height="50" relative="1" as="geometry">
            <mxPoint x="48" y="29.88000000000011" as="sourcePoint" />
            <mxPoint x="48" y="19.879999999999995" as="targetPoint" />
          </mxGeometry>
        </mxCell>
        <mxCell id="H8QWTwi_FPeAmoCJHyxQ-44" value="" style="endArrow=none;html=1;fillColor=#f8cecc;strokeColor=#b85450;" parent="H8QWTwi_FPeAmoCJHyxQ-39" edge="1">
          <mxGeometry width="50" height="50" relative="1" as="geometry">
            <mxPoint x="48" y="20" as="sourcePoint" />
            <mxPoint x="53" y="20" as="targetPoint" />
          </mxGeometry>
        </mxCell>
        <mxCell id="H8QWTwi_FPeAmoCJHyxQ-45" value="" style="endArrow=none;html=1;fillColor=#f8cecc;strokeColor=#b85450;" parent="H8QWTwi_FPeAmoCJHyxQ-39" edge="1">
          <mxGeometry width="50" height="50" relative="1" as="geometry">
            <mxPoint x="53" y="3" as="sourcePoint" />
            <mxPoint x="53" y="20" as="targetPoint" />
          </mxGeometry>
        </mxCell>
        <mxCell id="H8QWTwi_FPeAmoCJHyxQ-46" value="" style="endArrow=none;html=1;fillColor=#f8cecc;strokeColor=#b85450;" parent="H8QWTwi_FPeAmoCJHyxQ-39" edge="1">
          <mxGeometry width="50" height="50" relative="1" as="geometry">
            <mxPoint x="48" y="29.88000000000011" as="sourcePoint" />
            <mxPoint x="53" y="30" as="targetPoint" />
          </mxGeometry>
        </mxCell>
        <mxCell id="H8QWTwi_FPeAmoCJHyxQ-47" value="" style="endArrow=none;html=1;fillColor=#f8cecc;strokeColor=#b85450;" parent="H8QWTwi_FPeAmoCJHyxQ-39" edge="1">
          <mxGeometry width="50" height="50" relative="1" as="geometry">
            <mxPoint x="52.95999999999998" y="29.88000000000011" as="sourcePoint" />
            <mxPoint x="52.95999999999998" y="41.88000000000011" as="targetPoint" />
          </mxGeometry>
        </mxCell>
        <mxCell id="H8QWTwi_FPeAmoCJHyxQ-48" value="" style="endArrow=none;html=1;rounded=1;fillColor=#f8cecc;strokeColor=#b85450;" parent="H8QWTwi_FPeAmoCJHyxQ-39" edge="1">
          <mxGeometry width="50" height="50" relative="1" as="geometry">
            <mxPoint x="48" y="42" as="sourcePoint" />
            <mxPoint x="58" y="42" as="targetPoint" />
          </mxGeometry>
        </mxCell>
        <mxCell id="H8QWTwi_FPeAmoCJHyxQ-49" value="" style="endArrow=none;html=1;rounded=1;fillColor=#f8cecc;strokeColor=#b85450;" parent="H8QWTwi_FPeAmoCJHyxQ-39" edge="1">
          <mxGeometry width="50" height="50" relative="1" as="geometry">
            <mxPoint x="50" y="46" as="sourcePoint" />
            <mxPoint x="55" y="46" as="targetPoint" />
          </mxGeometry>
        </mxCell>
        <mxCell id="H8QWTwi_FPeAmoCJHyxQ-50" value="" style="endArrow=none;html=1;rounded=1;fillColor=#f8cecc;strokeColor=#b85450;" parent="H8QWTwi_FPeAmoCJHyxQ-39" edge="1">
          <mxGeometry width="50" height="50" relative="1" as="geometry">
            <mxPoint x="49" y="44" as="sourcePoint" />
            <mxPoint x="56" y="44" as="targetPoint" />
          </mxGeometry>
        </mxCell>
        <mxCell id="H8QWTwi_FPeAmoCJHyxQ-51" value="" style="endArrow=oval;html=1;rounded=1;startArrow=oval;startFill=1;endFill=1;startSize=1;endSize=1;" parent="H8QWTwi_FPeAmoCJHyxQ-39" edge="1">
          <mxGeometry width="50" height="50" relative="1" as="geometry">
            <mxPoint x="104" y="10" as="sourcePoint" />
            <mxPoint x="53" y="10" as="targetPoint" />
          </mxGeometry>
        </mxCell>
        <mxCell id="H8QWTwi_FPeAmoCJHyxQ-52" value="" style="group" parent="H8QWTwi_FPeAmoCJHyxQ-72" vertex="1" connectable="0">
          <mxGeometry y="140" width="100" height="50" as="geometry" />
        </mxCell>
        <mxCell id="H8QWTwi_FPeAmoCJHyxQ-53" value="" style="rounded=0;whiteSpace=wrap;html=1;fillColor=#f5f5f5;fontColor=#333333;strokeColor=#666666;" parent="H8QWTwi_FPeAmoCJHyxQ-52" vertex="1">
          <mxGeometry width="80" height="50" as="geometry" />
        </mxCell>
        <mxCell id="H8QWTwi_FPeAmoCJHyxQ-54" value="" style="endArrow=none;html=1;exitX=1.035;exitY=0.236;exitDx=0;exitDy=0;exitPerimeter=0;fillColor=#e1d5e7;strokeColor=#9673a6;" parent="H8QWTwi_FPeAmoCJHyxQ-52" edge="1">
          <mxGeometry width="50" height="50" relative="1" as="geometry">
            <mxPoint x="6" y="24" as="sourcePoint" />
            <mxPoint x="46" y="24" as="targetPoint" />
          </mxGeometry>
        </mxCell>
        <mxCell id="H8QWTwi_FPeAmoCJHyxQ-55" value="" style="endArrow=none;html=1;" parent="H8QWTwi_FPeAmoCJHyxQ-52" edge="1">
          <mxGeometry width="50" height="50" relative="1" as="geometry">
            <mxPoint x="46" y="29.88000000000011" as="sourcePoint" />
            <mxPoint x="46" y="19.879999999999995" as="targetPoint" />
          </mxGeometry>
        </mxCell>
        <mxCell id="H8QWTwi_FPeAmoCJHyxQ-56" value="" style="endArrow=none;html=1;fillColor=#f8cecc;strokeColor=#b85450;" parent="H8QWTwi_FPeAmoCJHyxQ-52" edge="1">
          <mxGeometry width="50" height="50" relative="1" as="geometry">
            <mxPoint x="48" y="29.88000000000011" as="sourcePoint" />
            <mxPoint x="48" y="19.879999999999995" as="targetPoint" />
          </mxGeometry>
        </mxCell>
        <mxCell id="H8QWTwi_FPeAmoCJHyxQ-57" value="" style="endArrow=none;html=1;fillColor=#f8cecc;strokeColor=#b85450;" parent="H8QWTwi_FPeAmoCJHyxQ-52" edge="1">
          <mxGeometry width="50" height="50" relative="1" as="geometry">
            <mxPoint x="48" y="20" as="sourcePoint" />
            <mxPoint x="53" y="20" as="targetPoint" />
          </mxGeometry>
        </mxCell>
        <mxCell id="H8QWTwi_FPeAmoCJHyxQ-58" value="" style="endArrow=none;html=1;fillColor=#f8cecc;strokeColor=#b85450;" parent="H8QWTwi_FPeAmoCJHyxQ-52" edge="1">
          <mxGeometry width="50" height="50" relative="1" as="geometry">
            <mxPoint x="53" y="3" as="sourcePoint" />
            <mxPoint x="53" y="20" as="targetPoint" />
          </mxGeometry>
        </mxCell>
        <mxCell id="H8QWTwi_FPeAmoCJHyxQ-59" value="" style="endArrow=none;html=1;fillColor=#f8cecc;strokeColor=#b85450;" parent="H8QWTwi_FPeAmoCJHyxQ-52" edge="1">
          <mxGeometry width="50" height="50" relative="1" as="geometry">
            <mxPoint x="48" y="29.88000000000011" as="sourcePoint" />
            <mxPoint x="53" y="30" as="targetPoint" />
          </mxGeometry>
        </mxCell>
        <mxCell id="H8QWTwi_FPeAmoCJHyxQ-60" value="" style="endArrow=none;html=1;fillColor=#f8cecc;strokeColor=#b85450;" parent="H8QWTwi_FPeAmoCJHyxQ-52" edge="1">
          <mxGeometry width="50" height="50" relative="1" as="geometry">
            <mxPoint x="52.95999999999998" y="29.88000000000011" as="sourcePoint" />
            <mxPoint x="52.95999999999998" y="41.88000000000011" as="targetPoint" />
          </mxGeometry>
        </mxCell>
        <mxCell id="H8QWTwi_FPeAmoCJHyxQ-61" value="" style="endArrow=none;html=1;rounded=1;fillColor=#f8cecc;strokeColor=#b85450;" parent="H8QWTwi_FPeAmoCJHyxQ-52" edge="1">
          <mxGeometry width="50" height="50" relative="1" as="geometry">
            <mxPoint x="48" y="42" as="sourcePoint" />
            <mxPoint x="58" y="42" as="targetPoint" />
          </mxGeometry>
        </mxCell>
        <mxCell id="H8QWTwi_FPeAmoCJHyxQ-62" value="" style="endArrow=none;html=1;rounded=1;fillColor=#f8cecc;strokeColor=#b85450;" parent="H8QWTwi_FPeAmoCJHyxQ-52" edge="1">
          <mxGeometry width="50" height="50" relative="1" as="geometry">
            <mxPoint x="50" y="46" as="sourcePoint" />
            <mxPoint x="55" y="46" as="targetPoint" />
          </mxGeometry>
        </mxCell>
        <mxCell id="H8QWTwi_FPeAmoCJHyxQ-63" value="" style="endArrow=none;html=1;rounded=1;fillColor=#f8cecc;strokeColor=#b85450;" parent="H8QWTwi_FPeAmoCJHyxQ-52" edge="1">
          <mxGeometry width="50" height="50" relative="1" as="geometry">
            <mxPoint x="49" y="44" as="sourcePoint" />
            <mxPoint x="56" y="44" as="targetPoint" />
          </mxGeometry>
        </mxCell>
        <mxCell id="H8QWTwi_FPeAmoCJHyxQ-64" value="" style="endArrow=oval;html=1;rounded=1;startArrow=oval;startFill=1;endFill=1;startSize=1;endSize=1;" parent="H8QWTwi_FPeAmoCJHyxQ-52" edge="1">
          <mxGeometry width="50" height="50" relative="1" as="geometry">
            <mxPoint x="104" y="8" as="sourcePoint" />
            <mxPoint x="53" y="8" as="targetPoint" />
          </mxGeometry>
        </mxCell>
        <mxCell id="H8QWTwi_FPeAmoCJHyxQ-66" value="" style="group" parent="H8QWTwi_FPeAmoCJHyxQ-72" vertex="1" connectable="0">
          <mxGeometry x="150" y="26" width="34" height="54" as="geometry" />
        </mxCell>
        <mxCell id="H8QWTwi_FPeAmoCJHyxQ-5" value="" style="endArrow=none;html=1;fillColor=#d5e8d4;strokeColor=#000000;" parent="H8QWTwi_FPeAmoCJHyxQ-66" edge="1">
          <mxGeometry width="50" height="50" relative="1" as="geometry">
            <mxPoint x="19" y="14" as="sourcePoint" />
            <mxPoint x="19" y="26.24000000000001" as="targetPoint" />
          </mxGeometry>
        </mxCell>
        <mxCell id="H8QWTwi_FPeAmoCJHyxQ-6" value="" style="endArrow=none;html=1;rounded=1;sourcePerimeterSpacing=0;fillColor=#d5e8d4;strokeColor=#000000;" parent="H8QWTwi_FPeAmoCJHyxQ-66" edge="1">
          <mxGeometry width="50" height="50" relative="1" as="geometry">
            <mxPoint x="14" y="14" as="sourcePoint" />
            <mxPoint x="24" y="14" as="targetPoint" />
          </mxGeometry>
        </mxCell>
        <mxCell id="H8QWTwi_FPeAmoCJHyxQ-28" value="" style="pointerEvents=1;verticalLabelPosition=bottom;shadow=0;dashed=0;align=center;html=1;verticalAlign=top;shape=mxgraph.electrical.resistors.resistor_1;rounded=1;rotation=-90;" parent="H8QWTwi_FPeAmoCJHyxQ-66" vertex="1">
          <mxGeometry x="9" y="30.629999999999995" width="20" height="5" as="geometry" />
        </mxCell>
        <mxCell id="H8QWTwi_FPeAmoCJHyxQ-29" value="" style="endArrow=none;html=1;rounded=0;entryX=0;entryY=0.5;entryDx=0;entryDy=0;entryPerimeter=0;curved=0;" parent="H8QWTwi_FPeAmoCJHyxQ-66" edge="1">
          <mxGeometry width="50" height="50" relative="1" as="geometry">
            <mxPoint y="54" as="sourcePoint" />
            <mxPoint x="19" y="43" as="targetPoint" />
            <Array as="points">
              <mxPoint x="19" y="54" />
            </Array>
          </mxGeometry>
        </mxCell>
        <mxCell id="H8QWTwi_FPeAmoCJHyxQ-30" value="&lt;font style=&quot;font-size: 6px;&quot;&gt;5V&lt;/font&gt;" style="text;strokeColor=none;align=center;fillColor=none;html=1;verticalAlign=middle;whiteSpace=wrap;rounded=0;" parent="H8QWTwi_FPeAmoCJHyxQ-66" vertex="1">
          <mxGeometry x="4" width="30" height="10" as="geometry" />
        </mxCell>
        <mxCell id="H8QWTwi_FPeAmoCJHyxQ-67" value="" style="endArrow=none;html=1;rounded=1;" parent="H8QWTwi_FPeAmoCJHyxQ-72" edge="1">
          <mxGeometry width="50" height="50" relative="1" as="geometry">
            <mxPoint x="100" y="80" as="sourcePoint" />
            <mxPoint x="150" y="80" as="targetPoint" />
          </mxGeometry>
        </mxCell>
        <mxCell id="H8QWTwi_FPeAmoCJHyxQ-68" value="" style="endArrow=none;html=1;rounded=1;" parent="H8QWTwi_FPeAmoCJHyxQ-72" edge="1">
          <mxGeometry width="50" height="50" relative="1" as="geometry">
            <mxPoint x="104" y="8" as="sourcePoint" />
            <mxPoint x="104" y="148" as="targetPoint" />
          </mxGeometry>
        </mxCell>
        <mxCell id="H8QWTwi_FPeAmoCJHyxQ-73" value="线与结构" style="text;strokeColor=none;align=center;fillColor=none;html=1;verticalAlign=middle;whiteSpace=wrap;rounded=0;" parent="1" vertex="1">
          <mxGeometry x="240" y="1030" width="60" height="30" as="geometry" />
        </mxCell>
        <mxCell id="H8QWTwi_FPeAmoCJHyxQ-74" value="只要一个开漏引脚输出低电平，整个总线拉低" style="text;strokeColor=none;align=center;fillColor=none;html=1;verticalAlign=middle;whiteSpace=wrap;rounded=0;" parent="1" vertex="1">
          <mxGeometry x="355" y="940" width="160" height="30" as="geometry" />
        </mxCell>
      </root>
    </mxGraphModel>
  </diagram>
  <diagram id="I9xhGMOGBoX5YpjdxLqz" name="紧急停止">
    <mxGraphModel dx="815" dy="434" grid="1" gridSize="10" guides="1" tooltips="1" connect="1" arrows="1" fold="1" page="1" pageScale="1" pageWidth="827" pageHeight="1169" math="0" shadow="0">
      <root>
        <mxCell id="0" />
        <mxCell id="1" parent="0" />
        <mxCell id="Nl7XCU_f5u8KW35ryktV-1" value="Safety Management Unit" style="rounded=0;whiteSpace=wrap;html=1;fillColor=#f5f5f5;strokeColor=#666666;gradientColor=none;" vertex="1" parent="1">
          <mxGeometry x="80" y="40" width="300" height="60" as="geometry" />
        </mxCell>
        <mxCell id="Nl7XCU_f5u8KW35ryktV-2" value="" style="group" vertex="1" connectable="0" parent="1">
          <mxGeometry x="80" y="150" width="80" height="50" as="geometry" />
        </mxCell>
        <mxCell id="Nl7XCU_f5u8KW35ryktV-3" value="Port 00" style="rounded=0;whiteSpace=wrap;html=1;fillColor=#d5e8d4;strokeColor=#82b366;" vertex="1" parent="Nl7XCU_f5u8KW35ryktV-2">
          <mxGeometry width="80" height="20" as="geometry" />
        </mxCell>
        <mxCell id="Nl7XCU_f5u8KW35ryktV-4" value="Pin" style="rounded=0;whiteSpace=wrap;html=1;fillColor=#d5e8d4;strokeColor=#82b366;" vertex="1" parent="Nl7XCU_f5u8KW35ryktV-2">
          <mxGeometry y="30" width="20" height="20" as="geometry" />
        </mxCell>
        <mxCell id="Nl7XCU_f5u8KW35ryktV-5" value="Pin" style="rounded=0;whiteSpace=wrap;html=1;fillColor=#d5e8d4;strokeColor=#82b366;" vertex="1" parent="Nl7XCU_f5u8KW35ryktV-2">
          <mxGeometry x="60" y="30" width="20" height="20" as="geometry" />
        </mxCell>
        <mxCell id="Nl7XCU_f5u8KW35ryktV-6" value="" style="endArrow=none;dashed=1;html=1;dashPattern=1 3;strokeWidth=2;exitX=1.097;exitY=0.521;exitDx=0;exitDy=0;exitPerimeter=0;entryX=0;entryY=0.5;entryDx=0;entryDy=0;fillColor=#d5e8d4;strokeColor=#82b366;" edge="1" parent="Nl7XCU_f5u8KW35ryktV-2" source="Nl7XCU_f5u8KW35ryktV-4" target="Nl7XCU_f5u8KW35ryktV-5">
          <mxGeometry width="50" height="50" relative="1" as="geometry">
            <mxPoint y="30" as="sourcePoint" />
            <mxPoint x="50" y="-20" as="targetPoint" />
          </mxGeometry>
        </mxCell>
        <mxCell id="Nl7XCU_f5u8KW35ryktV-7" value="" style="endArrow=none;html=1;fillColor=#d5e8d4;strokeColor=#82b366;" edge="1" parent="Nl7XCU_f5u8KW35ryktV-2">
          <mxGeometry width="50" height="50" relative="1" as="geometry">
            <mxPoint x="10" y="30" as="sourcePoint" />
            <mxPoint x="10" y="20" as="targetPoint" />
          </mxGeometry>
        </mxCell>
        <mxCell id="Nl7XCU_f5u8KW35ryktV-8" value="" style="endArrow=none;html=1;fillColor=#d5e8d4;strokeColor=#82b366;" edge="1" parent="Nl7XCU_f5u8KW35ryktV-2">
          <mxGeometry width="50" height="50" relative="1" as="geometry">
            <mxPoint x="10" y="30" as="sourcePoint" />
            <mxPoint x="10" y="20" as="targetPoint" />
          </mxGeometry>
        </mxCell>
        <mxCell id="Nl7XCU_f5u8KW35ryktV-9" value="" style="endArrow=none;html=1;fillColor=#d5e8d4;strokeColor=#82b366;" edge="1" parent="Nl7XCU_f5u8KW35ryktV-2">
          <mxGeometry width="50" height="50" relative="1" as="geometry">
            <mxPoint x="69.92000000000002" y="30" as="sourcePoint" />
            <mxPoint x="69.92000000000002" y="20" as="targetPoint" />
          </mxGeometry>
        </mxCell>
        <mxCell id="Nl7XCU_f5u8KW35ryktV-10" value="" style="group" vertex="1" connectable="0" parent="1">
          <mxGeometry x="190" y="150" width="80" height="50" as="geometry" />
        </mxCell>
        <mxCell id="Nl7XCU_f5u8KW35ryktV-11" value="Port 01" style="rounded=0;whiteSpace=wrap;html=1;fillColor=#d5e8d4;strokeColor=#82b366;" vertex="1" parent="Nl7XCU_f5u8KW35ryktV-10">
          <mxGeometry width="80" height="20" as="geometry" />
        </mxCell>
        <mxCell id="Nl7XCU_f5u8KW35ryktV-12" value="Pin" style="rounded=0;whiteSpace=wrap;html=1;fillColor=#d5e8d4;strokeColor=#82b366;" vertex="1" parent="Nl7XCU_f5u8KW35ryktV-10">
          <mxGeometry y="30" width="20" height="20" as="geometry" />
        </mxCell>
        <mxCell id="Nl7XCU_f5u8KW35ryktV-13" value="Pin" style="rounded=0;whiteSpace=wrap;html=1;fillColor=#d5e8d4;strokeColor=#82b366;" vertex="1" parent="Nl7XCU_f5u8KW35ryktV-10">
          <mxGeometry x="60" y="30" width="20" height="20" as="geometry" />
        </mxCell>
        <mxCell id="Nl7XCU_f5u8KW35ryktV-14" value="" style="endArrow=none;dashed=1;html=1;dashPattern=1 3;strokeWidth=2;exitX=1.097;exitY=0.521;exitDx=0;exitDy=0;exitPerimeter=0;entryX=0;entryY=0.5;entryDx=0;entryDy=0;fillColor=#d5e8d4;strokeColor=#82b366;" edge="1" parent="Nl7XCU_f5u8KW35ryktV-10" source="Nl7XCU_f5u8KW35ryktV-12" target="Nl7XCU_f5u8KW35ryktV-13">
          <mxGeometry width="50" height="50" relative="1" as="geometry">
            <mxPoint y="30" as="sourcePoint" />
            <mxPoint x="50" y="-20" as="targetPoint" />
          </mxGeometry>
        </mxCell>
        <mxCell id="Nl7XCU_f5u8KW35ryktV-15" value="" style="endArrow=none;html=1;fillColor=#d5e8d4;strokeColor=#82b366;" edge="1" parent="Nl7XCU_f5u8KW35ryktV-10">
          <mxGeometry width="50" height="50" relative="1" as="geometry">
            <mxPoint x="10" y="30" as="sourcePoint" />
            <mxPoint x="10" y="20" as="targetPoint" />
          </mxGeometry>
        </mxCell>
        <mxCell id="Nl7XCU_f5u8KW35ryktV-16" value="" style="endArrow=none;html=1;fillColor=#d5e8d4;strokeColor=#82b366;" edge="1" parent="Nl7XCU_f5u8KW35ryktV-10">
          <mxGeometry width="50" height="50" relative="1" as="geometry">
            <mxPoint x="10" y="30" as="sourcePoint" />
            <mxPoint x="10" y="20" as="targetPoint" />
          </mxGeometry>
        </mxCell>
        <mxCell id="Nl7XCU_f5u8KW35ryktV-17" value="" style="endArrow=none;html=1;fillColor=#d5e8d4;strokeColor=#82b366;" edge="1" parent="Nl7XCU_f5u8KW35ryktV-10">
          <mxGeometry width="50" height="50" relative="1" as="geometry">
            <mxPoint x="69.92000000000002" y="30" as="sourcePoint" />
            <mxPoint x="69.92000000000002" y="20" as="targetPoint" />
          </mxGeometry>
        </mxCell>
        <mxCell id="Nl7XCU_f5u8KW35ryktV-18" value="" style="group" vertex="1" connectable="0" parent="1">
          <mxGeometry x="300" y="150" width="80" height="50" as="geometry" />
        </mxCell>
        <mxCell id="Nl7XCU_f5u8KW35ryktV-19" value="Port 02" style="rounded=0;whiteSpace=wrap;html=1;fillColor=#d5e8d4;strokeColor=#82b366;" vertex="1" parent="Nl7XCU_f5u8KW35ryktV-18">
          <mxGeometry width="80" height="20" as="geometry" />
        </mxCell>
        <mxCell id="Nl7XCU_f5u8KW35ryktV-20" value="Pin" style="rounded=0;whiteSpace=wrap;html=1;fillColor=#d5e8d4;strokeColor=#82b366;" vertex="1" parent="Nl7XCU_f5u8KW35ryktV-18">
          <mxGeometry y="30" width="20" height="20" as="geometry" />
        </mxCell>
        <mxCell id="Nl7XCU_f5u8KW35ryktV-21" value="Pin" style="rounded=0;whiteSpace=wrap;html=1;fillColor=#d5e8d4;strokeColor=#82b366;" vertex="1" parent="Nl7XCU_f5u8KW35ryktV-18">
          <mxGeometry x="60" y="30" width="20" height="20" as="geometry" />
        </mxCell>
        <mxCell id="Nl7XCU_f5u8KW35ryktV-22" value="" style="endArrow=none;dashed=1;html=1;dashPattern=1 3;strokeWidth=2;exitX=1.097;exitY=0.521;exitDx=0;exitDy=0;exitPerimeter=0;entryX=0;entryY=0.5;entryDx=0;entryDy=0;fillColor=#d5e8d4;strokeColor=#82b366;" edge="1" parent="Nl7XCU_f5u8KW35ryktV-18" source="Nl7XCU_f5u8KW35ryktV-20" target="Nl7XCU_f5u8KW35ryktV-21">
          <mxGeometry width="50" height="50" relative="1" as="geometry">
            <mxPoint y="30" as="sourcePoint" />
            <mxPoint x="50" y="-20" as="targetPoint" />
          </mxGeometry>
        </mxCell>
        <mxCell id="Nl7XCU_f5u8KW35ryktV-23" value="" style="endArrow=none;html=1;fillColor=#d5e8d4;strokeColor=#82b366;" edge="1" parent="Nl7XCU_f5u8KW35ryktV-18">
          <mxGeometry width="50" height="50" relative="1" as="geometry">
            <mxPoint x="10" y="30" as="sourcePoint" />
            <mxPoint x="10" y="20" as="targetPoint" />
          </mxGeometry>
        </mxCell>
        <mxCell id="Nl7XCU_f5u8KW35ryktV-24" value="" style="endArrow=none;html=1;fillColor=#d5e8d4;strokeColor=#82b366;" edge="1" parent="Nl7XCU_f5u8KW35ryktV-18">
          <mxGeometry width="50" height="50" relative="1" as="geometry">
            <mxPoint x="10" y="30" as="sourcePoint" />
            <mxPoint x="10" y="20" as="targetPoint" />
          </mxGeometry>
        </mxCell>
        <mxCell id="Nl7XCU_f5u8KW35ryktV-25" value="" style="endArrow=none;html=1;fillColor=#d5e8d4;strokeColor=#82b366;" edge="1" parent="Nl7XCU_f5u8KW35ryktV-18">
          <mxGeometry width="50" height="50" relative="1" as="geometry">
            <mxPoint x="69.92000000000002" y="30" as="sourcePoint" />
            <mxPoint x="69.92000000000002" y="20" as="targetPoint" />
          </mxGeometry>
        </mxCell>
        <mxCell id="Nl7XCU_f5u8KW35ryktV-26" value="" style="endArrow=none;html=1;" edge="1" parent="1">
          <mxGeometry width="50" height="50" relative="1" as="geometry">
            <mxPoint x="120" y="131" as="sourcePoint" />
            <mxPoint x="340" y="131" as="targetPoint" />
          </mxGeometry>
        </mxCell>
        <mxCell id="Nl7XCU_f5u8KW35ryktV-27" value="" style="endArrow=none;html=1;exitX=0.499;exitY=-0.025;exitDx=0;exitDy=0;exitPerimeter=0;startArrow=classic;startFill=1;" edge="1" parent="1" source="Nl7XCU_f5u8KW35ryktV-3">
          <mxGeometry width="50" height="50" relative="1" as="geometry">
            <mxPoint x="110" y="160" as="sourcePoint" />
            <mxPoint x="120" y="130" as="targetPoint" />
          </mxGeometry>
        </mxCell>
        <mxCell id="Nl7XCU_f5u8KW35ryktV-28" value="" style="endArrow=none;html=1;exitX=0.499;exitY=-0.025;exitDx=0;exitDy=0;exitPerimeter=0;startArrow=classic;startFill=1;" edge="1" parent="1">
          <mxGeometry width="50" height="50" relative="1" as="geometry">
            <mxPoint x="229.86" y="150" as="sourcePoint" />
            <mxPoint x="229.86" y="131" as="targetPoint" />
          </mxGeometry>
        </mxCell>
        <mxCell id="Nl7XCU_f5u8KW35ryktV-29" value="" style="endArrow=none;html=1;exitX=0.499;exitY=-0.025;exitDx=0;exitDy=0;exitPerimeter=0;startArrow=classicThin;startFill=1;" edge="1" parent="1">
          <mxGeometry width="50" height="50" relative="1" as="geometry">
            <mxPoint x="339.89" y="150" as="sourcePoint" />
            <mxPoint x="339.89" y="131" as="targetPoint" />
          </mxGeometry>
        </mxCell>
        <mxCell id="Nl7XCU_f5u8KW35ryktV-30" value="" style="endArrow=classic;html=1;entryX=0.5;entryY=1;entryDx=0;entryDy=0;startArrow=none;startFill=0;endFill=1;" edge="1" parent="1">
          <mxGeometry width="50" height="50" relative="1" as="geometry">
            <mxPoint x="182" y="130" as="sourcePoint" />
            <mxPoint x="182" y="100" as="targetPoint" />
          </mxGeometry>
        </mxCell>
        <mxCell id="Nl7XCU_f5u8KW35ryktV-31" value="&lt;div&gt;&lt;br&gt;&lt;/div&gt;&lt;div&gt;&lt;br&gt;&lt;/div&gt;&lt;div&gt;&lt;br&gt;&lt;/div&gt;&lt;div&gt;&lt;br&gt;&lt;/div&gt;&lt;div&gt;&lt;br&gt;&lt;/div&gt;&lt;div&gt;&lt;br&gt;&lt;/div&gt;&lt;div&gt;&lt;br&gt;&lt;/div&gt;" style="text;strokeColor=none;align=center;fillColor=none;html=1;verticalAlign=middle;whiteSpace=wrap;rounded=0;" vertex="1" parent="1">
          <mxGeometry x="239" y="101" width="140" height="30" as="geometry" />
        </mxCell>
        <mxCell id="Nl7XCU_f5u8KW35ryktV-32" value="" style="endArrow=none;html=1;exitX=0.715;exitY=1.01;exitDx=0;exitDy=0;exitPerimeter=0;" edge="1" parent="1">
          <mxGeometry width="50" height="50" relative="1" as="geometry">
            <mxPoint x="340" y="131" as="sourcePoint" />
            <mxPoint x="422.9" y="131" as="targetPoint" />
          </mxGeometry>
        </mxCell>
        <mxCell id="Nl7XCU_f5u8KW35ryktV-33" value="&lt;font style=&quot;font-size: 10px;&quot;&gt;Emergency Stop Signal&lt;/font&gt;" style="text;strokeColor=none;align=center;fillColor=none;html=1;verticalAlign=middle;whiteSpace=wrap;rounded=0;" vertex="1" parent="1">
          <mxGeometry x="279" y="100" width="143" height="30" as="geometry" />
        </mxCell>
        <mxCell id="Nl7XCU_f5u8KW35ryktV-34" value="ES" style="rounded=0;whiteSpace=wrap;html=1;" vertex="1" parent="1">
          <mxGeometry x="422" y="118" width="30" height="25" as="geometry" />
        </mxCell>
        <mxCell id="Nl7XCU_f5u8KW35ryktV-57" style="edgeStyle=orthogonalEdgeStyle;rounded=0;orthogonalLoop=1;jettySize=auto;html=1;" edge="1" parent="1" source="Nl7XCU_f5u8KW35ryktV-39" target="Nl7XCU_f5u8KW35ryktV-58">
          <mxGeometry relative="1" as="geometry">
            <mxPoint x="190" y="320" as="targetPoint" />
            <Array as="points">
              <mxPoint x="160" y="460" />
              <mxPoint x="160" y="320" />
            </Array>
          </mxGeometry>
        </mxCell>
        <mxCell id="Nl7XCU_f5u8KW35ryktV-39" value="&lt;div&gt;ESR_ENx有效 &amp;amp;&lt;/div&gt;&lt;div&gt;Support &amp;amp; No Overruled&lt;/div&gt;" style="rounded=1;whiteSpace=wrap;html=1;" vertex="1" parent="1">
          <mxGeometry x="220" y="440" width="120" height="40" as="geometry" />
        </mxCell>
        <mxCell id="Nl7XCU_f5u8KW35ryktV-41" style="edgeStyle=orthogonalEdgeStyle;rounded=0;orthogonalLoop=1;jettySize=auto;html=1;entryX=0.5;entryY=0;entryDx=0;entryDy=0;" edge="1" parent="1" source="Nl7XCU_f5u8KW35ryktV-40" target="Nl7XCU_f5u8KW35ryktV-39">
          <mxGeometry relative="1" as="geometry" />
        </mxCell>
        <mxCell id="Nl7XCU_f5u8KW35ryktV-61" style="edgeStyle=orthogonalEdgeStyle;rounded=0;orthogonalLoop=1;jettySize=auto;html=1;entryX=0;entryY=0.5;entryDx=0;entryDy=0;" edge="1" parent="1" source="Nl7XCU_f5u8KW35ryktV-40" target="Nl7XCU_f5u8KW35ryktV-52">
          <mxGeometry relative="1" as="geometry" />
        </mxCell>
        <mxCell id="Nl7XCU_f5u8KW35ryktV-40" value="Emergency Stop有效" style="rounded=1;whiteSpace=wrap;html=1;" vertex="1" parent="1">
          <mxGeometry x="220" y="370" width="120" height="30" as="geometry" />
        </mxCell>
        <mxCell id="Nl7XCU_f5u8KW35ryktV-45" style="edgeStyle=orthogonalEdgeStyle;rounded=0;orthogonalLoop=1;jettySize=auto;html=1;entryX=0.5;entryY=0;entryDx=0;entryDy=0;" edge="1" parent="1" source="Nl7XCU_f5u8KW35ryktV-42">
          <mxGeometry relative="1" as="geometry">
            <mxPoint x="280" y="580" as="targetPoint" />
          </mxGeometry>
        </mxCell>
        <mxCell id="Nl7XCU_f5u8KW35ryktV-60" style="edgeStyle=orthogonalEdgeStyle;rounded=0;orthogonalLoop=1;jettySize=auto;html=1;" edge="1" parent="1" source="Nl7XCU_f5u8KW35ryktV-42">
          <mxGeometry relative="1" as="geometry">
            <mxPoint x="160" y="460" as="targetPoint" />
          </mxGeometry>
        </mxCell>
        <mxCell id="Nl7XCU_f5u8KW35ryktV-42" value="is_output_mode" style="rounded=1;whiteSpace=wrap;html=1;" vertex="1" parent="1">
          <mxGeometry x="220" y="520" width="120" height="30" as="geometry" />
        </mxCell>
        <mxCell id="Nl7XCU_f5u8KW35ryktV-43" style="edgeStyle=orthogonalEdgeStyle;rounded=0;orthogonalLoop=1;jettySize=auto;html=1;entryX=0.499;entryY=0.061;entryDx=0;entryDy=0;entryPerimeter=0;" edge="1" parent="1" source="Nl7XCU_f5u8KW35ryktV-39" target="Nl7XCU_f5u8KW35ryktV-42">
          <mxGeometry relative="1" as="geometry" />
        </mxCell>
        <mxCell id="Nl7XCU_f5u8KW35ryktV-46" value="Safe_state" style="rounded=1;whiteSpace=wrap;html=1;" vertex="1" parent="1">
          <mxGeometry x="220" y="580" width="120" height="30" as="geometry" />
        </mxCell>
        <mxCell id="Nl7XCU_f5u8KW35ryktV-52" value="now state" style="rounded=1;whiteSpace=wrap;html=1;" vertex="1" parent="1">
          <mxGeometry x="400" y="370" width="120" height="30" as="geometry" />
        </mxCell>
        <mxCell id="Nl7XCU_f5u8KW35ryktV-59" style="edgeStyle=orthogonalEdgeStyle;rounded=0;orthogonalLoop=1;jettySize=auto;html=1;entryX=0.5;entryY=0;entryDx=0;entryDy=0;" edge="1" parent="1" source="Nl7XCU_f5u8KW35ryktV-58" target="Nl7XCU_f5u8KW35ryktV-40">
          <mxGeometry relative="1" as="geometry" />
        </mxCell>
        <mxCell id="Nl7XCU_f5u8KW35ryktV-58" value="" style="shape=waypoint;sketch=0;fillStyle=solid;size=6;pointerEvents=1;points=[];fillColor=none;resizable=0;rotatable=0;perimeter=centerPerimeter;snapToPoint=1;" vertex="1" parent="1">
          <mxGeometry x="270" y="310" width="20" height="20" as="geometry" />
        </mxCell>
        <mxCell id="Nl7XCU_f5u8KW35ryktV-63" value="" style="endArrow=classic;html=1;rounded=0;exitX=0.5;exitY=0;exitDx=0;exitDy=0;endFill=1;" edge="1" parent="1" source="Nl7XCU_f5u8KW35ryktV-52" target="Nl7XCU_f5u8KW35ryktV-58">
          <mxGeometry width="50" height="50" relative="1" as="geometry">
            <mxPoint x="452" y="360" as="sourcePoint" />
            <mxPoint x="320" y="320" as="targetPoint" />
            <Array as="points">
              <mxPoint x="460" y="320" />
            </Array>
          </mxGeometry>
        </mxCell>
        <mxCell id="Nl7XCU_f5u8KW35ryktV-64" value="&lt;div align=&quot;left&quot;&gt;&lt;span style=&quot;color: rgb(255, 0, 0);&quot;&gt;Q1:进入安全态后，怎么恢复？&lt;/span&gt;&lt;/div&gt;&lt;div align=&quot;left&quot;&gt;&lt;span style=&quot;color: rgb(255, 0, 0);&quot;&gt;Q2:已经进入安全态后，紧急停止撤销，状态怎么变化？&lt;/span&gt;&lt;/div&gt;&lt;div align=&quot;left&quot;&gt;&lt;span style=&quot;color: rgb(255, 0, 0);&quot;&gt;Q3:紧急停止的来源，外部触发，硬件自上报？&lt;/span&gt;&lt;/div&gt;&lt;div align=&quot;left&quot;&gt;&lt;span style=&quot;color: rgba(0, 0, 0, 0);&quot;&gt;复位、重新配置？&lt;/span&gt;&lt;/div&gt;" style="text;strokeColor=none;align=left;fillColor=none;html=1;verticalAlign=middle;whiteSpace=wrap;rounded=0;" vertex="1" parent="1">
          <mxGeometry x="379" y="470" width="300" height="30" as="geometry" />
        </mxCell>
        <mxCell id="Nl7XCU_f5u8KW35ryktV-65" value="&lt;div&gt;Safe_state对于各个PIN可能不同&lt;/div&gt;&lt;div&gt;存在紧急停止豁免场景&lt;/div&gt;" style="text;strokeColor=none;align=left;fillColor=none;html=1;verticalAlign=middle;whiteSpace=wrap;rounded=0;" vertex="1" parent="1">
          <mxGeometry x="380" y="520" width="248" height="30" as="geometry" />
        </mxCell>
      </root>
    </mxGraphModel>
  </diagram>
</mxfile>
